<?xml version="1.0" encoding="UTF-8"?>
<svg width="22px" height="26px" viewBox="0 0 22 26" version="1.1" xmlns="http://www.w3.org/2000/svg" xmlns:xlink="http://www.w3.org/1999/xlink">
    <!-- Generator: Sketch 49.3 (51167) - http://www.bohemiancoding.com/sketch -->
    <title>TMUS Offline@1.5x</title>
    <desc>Created with Sketch.</desc>
    <defs></defs>
    <g id="Page-1" stroke="none" stroke-width="1" fill="none" fill-rule="evenodd">
        <g id="TMUS-Offline">
            <g id="Combined-Shape-Copy-36">
                <g id="path-1-link" fill="#000000" fill-rule="nonzero">
                    <path d="M8.45165745,21.3744768 L10.8,26 L13.1001248,21.4694512 C18.1707297,20.5040512 22,16.1091037 22,10.8333333 C22,4.85024854 17.0751322,0 11,0 C6.30436162,0 2.29591118,2.89762252 0.717611138,6.97631363 C0.25393505,8.17455952 0,9.47474089 0,10.8333333 C0,15.9524909 3.60529874,20.2423444 8.45165745,21.3744768 Z" id="path-1"></path>
                </g>
                <g id="path-1-link" fill="#FFFFFF">
                    <path d="M8.45165745,21.3744768 L10.8,26 L13.1001248,21.4694512 C18.1707297,20.5040512 22,16.1091037 22,10.8333333 C22,4.85024854 17.0751322,0 11,0 C6.30436162,0 2.29591118,2.89762252 0.717611138,6.97631363 C0.25393505,8.17455952 0,9.47474089 0,10.8333333 C0,15.9524909 3.60529874,20.2423444 8.45165745,21.3744768 Z" id="path-1"></path>
                </g>
            </g>
            <path d="M8.45165745,21.3744768 L10.8,26 L13.1001248,21.4694512 C18.1707297,20.5040512 22,16.1091037 22,10.8333333 C22,4.85024854 17.0751322,0 11,0 C6.30436162,0 2.29591118,2.89762252 0.717611138,6.97631363 C0.25393505,8.17455952 0,9.47474089 0,10.8333333 C0,15.9524909 3.60529874,20.2423444 8.45165745,21.3744768 Z" id="Combined-Shape-Copy-48" fill-opacity="0.5" fill="#E20074" fill-rule="nonzero"></path>
        </g>
    </g>
</svg>