<svg xmlns="http://www.w3.org/2000/svg" width="40" height="16" viewBox="0 0 40 16">
    <g fill="none" fill-rule="evenodd" transform="translate(-.002 -.2)">
        <path fill="#D1D1D1" d="M1.32.219h24.931v12.417H1.32z"/>
        <path fill="#E5E5E5" d="M26.251 4.09h3.813c.954.073 1.32.585 2.787 1.68a3246.87 3246.87 0 0 0 5.206 3.872s.66.73.587 1.826l.146 1.753s-.293.438-2.126.365c0 0 .073-2.63-2.567-2.556 0 0-2.346-.073-2.493 2.556l-5.353-.073V4.09z"/>
        <path fill="#494949" d="M38.937 11.76l-.367-.073c0 .22-.366.22-.366.22l-1.1.218a3.188 3.188 0 0 0-2.64-1.68c-1.393-.073-2.64.73-3.153 1.9l-19.799.072c-.44-1.168-1.54-2.045-2.86-2.118-1.466-.073-2.712.804-3.226 2.118h-4.18V10.81H.514v2.85h4.62v.145h6.6v-.146l19.211.073v.22h6.6v-.147h.366c.807 0 .88-.511.88-.511-.22-.438.22-.804.22-.804.147-.51-.073-.73-.073-.73z"/>
        <path fill="#D1D1D1" d="M37.984 9.642s-1.027.219-1.614.146c0 0 .587.95.587 1.242 0 0 1.467.146 1.613-.147 0 0-.073-.876-.586-1.241z"/>
        <ellipse cx="8.433" cy="13.659" fill="#494949" rx="1.613" ry="1.607"/>
        <g transform="translate(5.133 10.957)">
            <path fill="#545454" d="M.733 2.63C.66 4.09 1.907 5.332 3.373 5.26c1.32-.074 2.42-1.17 2.493-2.484C5.94 1.315 4.693.073 3.226.146 1.906.22.806 1.315.733 2.63z"/>
            <ellipse cx="3.3" cy="2.703" fill="#E2E2E2" rx="1.1" ry="1.096"/>
            <path fill="#B2B2B3" d="M1.613 2.703c0 .95.807 1.753 1.76 1.753s1.76-.804 1.76-1.753c0-.95-.807-1.753-1.76-1.753-1.027.073-1.76.803-1.76 1.753zm.294 0c0-.804.66-1.461 1.466-1.461.807 0 1.467.657 1.467 1.46 0 .804-.66 1.461-1.467 1.461-.88 0-1.466-.657-1.466-1.46z"/>
        </g>
        <g transform="translate(31.53 10.957)">
            <path fill="#545454" d="M.147 2.63C.073 4.09 1.32 5.332 2.787 5.26c1.32-.074 2.42-1.17 2.493-2.484C5.353 1.315 4.106.073 2.64.146 1.32.22.22 1.315.147 2.63z"/>
            <ellipse cx="2.713" cy="2.703" fill="#E2E2E2" rx="1.1" ry="1.096"/>
            <path fill="#B2B2B3" d="M1.027 2.703c0 .95.806 1.753 1.76 1.753.953 0 1.76-.804 1.76-1.753 0-.95-.807-1.753-1.76-1.753-1.027.073-1.76.803-1.76 1.753zm.293 0c0-.804.66-1.461 1.466-1.461.807 0 1.467.657 1.467 1.46 0 .804-.66 1.461-1.467 1.461-.88 0-1.466-.657-1.466-1.46z"/>
        </g>
        <path fill="#7C7C7C" d="M33.73 8.327c0-.073-.073-.22-.073-.292-.293-.365-2.933-2.557-2.933-2.557-.293-.292-.733-.365-.953-.438h-2.64v3.652h6.233c.22 0 .367-.146.367-.365z"/>
        <path fill="#494949" d="M34.317 8.108c0-.073-.073-.073 0 0-.073-.073-.073-.073 0 0-.366-.365-3.226-2.557-3.226-2.557-.367-.292-.807-.365-1.027-.438h-2.933v3.652H34.024c.22 0 .367-.219.367-.438 0-.073 0-.22-.074-.22zm-1.246.292h-4.84l-.293-.146v-.95c0-.511-.294-.511-.44-.438V5.478h2.346c.22 0 .514.073.807.292 0 0 2.273 1.753 2.566 2.046.074.073.074.146.074.219.073.146-.074.292-.22.365z"/>
    </g>
</svg>
