<?xml version="1.0" encoding="UTF-8"?>
<svg width="50px" height="21px" viewBox="0 0 50 21" version="1.1" xmlns="http://www.w3.org/2000/svg" xmlns:xlink="http://www.w3.org/1999/xlink">
    <!-- Generator: Sketch 47.1 (45422) - http://www.bohemiancoding.com/sketch -->
    <title>BigTruck@1.5x</title>
    <desc>Created with Sketch.</desc>
    <defs></defs>
    <g id="01-Design:-Flow-and-UI" stroke="none" stroke-width="1" fill="none" fill-rule="evenodd">
        <g id="01.02-(Low-Severity-DTC,-Low-Battery)-Copy-3" transform="translate(-235.000000, -865.000000)">
            <g id="BigTruck" transform="translate(235.000000, 865.000000)">
                <g id="Layer_1">
                    <g id="Group">
                        <rect id="Rectangle-path" fill="#D1D1D1" x="1.66666667" y="0.273913043" width="31.4814815" height="15.5217391"></rect>
                        <path d="M33.1481481,5.11304348 L37.962963,5.11304348 C39.1666667,5.20434783 39.6296296,5.84347826 41.4814815,7.21304348 C43.3333333,8.5826087 48.0555556,12.0521739 48.0555556,12.0521739 C48.0555556,12.0521739 48.8888889,12.9652174 48.7962963,14.3347826 L48.9814815,16.526087 C48.9814815,16.526087 48.6111111,17.073913 46.2962963,16.9826087 C46.2962963,16.9826087 46.3888889,13.6956522 43.0555556,13.7869565 C43.0555556,13.7869565 40.0925926,13.6956522 39.9074074,16.9826087 L33.1481481,16.8913043 L33.1481481,5.11304348 L33.1481481,5.11304348 Z" id="Shape" fill="#E5E5E5"></path>
                        <path d="M49.1666667,14.7 L48.7037037,14.6086957 C48.7037037,14.8826087 48.2407407,14.8826087 48.2407407,14.8826087 L46.8518519,15.1565217 C46.2037037,13.9695652 45,13.1478261 43.5185185,13.0565217 C41.7592593,12.9652174 40.1851852,13.9695652 39.537037,15.4304348 L14.537037,15.5217391 C13.9814815,14.0608696 12.5925926,12.9652174 10.9259259,12.873913 C9.07407407,12.7826087 7.5,13.8782609 6.85185185,15.5217391 L1.57407407,15.5217391 L1.57407407,13.5130435 L0.648148148,13.5130435 L0.648148148,17.073913 L6.48148148,17.073913 L6.48148148,17.2565217 L14.8148148,17.2565217 L14.8148148,17.073913 L39.0740741,17.1652174 L39.0740741,17.4391304 L47.4074074,17.4391304 L47.4074074,17.2565217 L47.8703704,17.2565217 C48.8888889,17.2565217 48.9814815,16.6173913 48.9814815,16.6173913 C48.7037037,16.0695652 49.2592593,15.6130435 49.2592593,15.6130435 C49.4444444,14.973913 49.1666667,14.7 49.1666667,14.7 Z" id="Shape" fill="#494949"></path>
                        <path d="M47.962963,12.0521739 C47.962963,12.0521739 46.6666667,12.326087 45.9259259,12.2347826 C45.9259259,12.2347826 46.6666667,13.4217391 46.6666667,13.7869565 C46.6666667,13.7869565 48.5185185,13.9695652 48.7037037,13.6043478 C48.7037037,13.6043478 48.6111111,12.5086957 47.962963,12.0521739 Z" id="Shape" fill="#D1D1D1"></path>
                        <ellipse id="Oval" fill="#494949" cx="10.6481481" cy="17.073913" rx="2.03703704" ry="2.00869565"></ellipse>
                        <g transform="translate(6.481481, 13.695652)">
                            <path d="M0.925925926,3.28695652 C0.833333333,5.11304348 2.40740741,6.66521739 4.25925926,6.57391304 C5.92592593,6.4826087 7.31481481,5.11304348 7.40740741,3.46956522 C7.5,1.64347826 5.92592593,0.0913043478 4.07407407,0.182608696 C2.40740741,0.273913043 1.01851852,1.64347826 0.925925926,3.28695652 Z" id="Shape" fill="#545454"></path>
                            <ellipse id="Oval" fill="#E2E2E2" cx="4.16666667" cy="3.37826087" rx="1.38888889" ry="1.36956522"></ellipse>
                            <path d="M2.03703704,3.37826087 C2.03703704,4.56521739 3.05555556,5.56956522 4.25925926,5.56956522 C5.46296296,5.56956522 6.48148148,4.56521739 6.48148148,3.37826087 C6.48148148,2.19130435 5.46296296,1.18695652 4.25925926,1.18695652 C2.96296296,1.27826087 2.03703704,2.19130435 2.03703704,3.37826087 Z M2.40740741,3.37826087 C2.40740741,2.37391304 3.24074074,1.55217391 4.25925926,1.55217391 C5.27777778,1.55217391 6.11111111,2.37391304 6.11111111,3.37826087 C6.11111111,4.3826087 5.27777778,5.20434783 4.25925926,5.20434783 C3.14814815,5.20434783 2.40740741,4.3826087 2.40740741,3.37826087 Z" id="Shape" fill="#B2B2B3"></path>
                        </g>
                        <g transform="translate(39.814815, 13.695652)">
                            <path d="M0.185185185,3.28695652 C0.0925925926,5.11304348 1.66666667,6.66521739 3.51851852,6.57391304 C5.18518519,6.4826087 6.57407407,5.11304348 6.66666667,3.46956522 C6.75925926,1.64347826 5.18518519,0.0913043478 3.33333333,0.182608696 C1.66666667,0.273913043 0.277777778,1.64347826 0.185185185,3.28695652 Z" id="Shape" fill="#545454"></path>
                            <ellipse id="Oval" fill="#E2E2E2" cx="3.42592593" cy="3.37826087" rx="1.38888889" ry="1.36956522"></ellipse>
                            <path d="M1.2962963,3.37826087 C1.2962963,4.56521739 2.31481481,5.56956522 3.51851852,5.56956522 C4.72222222,5.56956522 5.74074074,4.56521739 5.74074074,3.37826087 C5.74074074,2.19130435 4.72222222,1.18695652 3.51851852,1.18695652 C2.22222222,1.27826087 1.2962963,2.19130435 1.2962963,3.37826087 Z M1.66666667,3.37826087 C1.66666667,2.37391304 2.5,1.55217391 3.51851852,1.55217391 C4.53703704,1.55217391 5.37037037,2.37391304 5.37037037,3.37826087 C5.37037037,4.3826087 4.53703704,5.20434783 3.51851852,5.20434783 C2.40740741,5.20434783 1.66666667,4.3826087 1.66666667,3.37826087 Z" id="Shape" fill="#B2B2B3"></path>
                        </g>
                        <path d="M42.5925926,10.4086957 C42.5925926,10.3173913 42.5,10.1347826 42.5,10.0434783 L42.5,10.0434783 L42.5,10.0434783 L42.5,10.0434783 C42.1296296,9.58695652 38.7962963,6.84782609 38.7962963,6.84782609 C38.4259259,6.4826087 37.8703704,6.39130435 37.5925926,6.3 L34.2592593,6.3 L34.2592593,10.8652174 L42.1296296,10.8652174 L42.1296296,10.8652174 C42.4074074,10.8652174 42.5925926,10.6826087 42.5925926,10.4086957 Z" id="Shape" fill="#7C7C7C"></path>
                        <path d="M43.3333333,10.1347826 L43.3333333,10.1347826 C43.3333333,10.0434783 43.2407407,10.0434783 43.3333333,10.1347826 C43.2407407,10.0434783 43.2407407,10.0434783 43.3333333,10.1347826 C42.8703704,9.67826087 39.2592593,6.93913043 39.2592593,6.93913043 C38.7962963,6.57391304 38.2407407,6.4826087 37.962963,6.39130435 L34.2592593,6.39130435 L34.2592593,10.9565217 L34.537037,10.9565217 L37.1296296,10.9565217 L42.962963,10.9565217 L42.962963,10.9565217 C43.2407407,10.9565217 43.4259259,10.6826087 43.4259259,10.4086957 C43.4259259,10.3173913 43.4259259,10.1347826 43.3333333,10.1347826 Z M41.7592593,10.5 L41.7592593,10.5 L35.6481481,10.5 L35.2777778,10.3173913 L35.2777778,9.13043478 C35.2777778,8.49130435 34.9074074,8.49130435 34.7222222,8.5826087 L34.7222222,6.84782609 L37.6851852,6.84782609 C37.962963,6.84782609 38.3333333,6.93913043 38.7037037,7.21304348 C38.7037037,7.21304348 41.5740741,9.40434783 41.9444444,9.76956522 L41.9444444,9.76956522 L41.9444444,9.76956522 L41.9444444,9.76956522 C42.037037,9.86086957 42.037037,9.95217391 42.037037,10.0434783 C42.1296296,10.226087 41.9444444,10.4086957 41.7592593,10.5 Z" id="Shape" fill="#494949"></path>
                    </g>
                </g>
            </g>
        </g>
    </g>
</svg>