<?xml version="1.0" encoding="UTF-8"?>
<svg width="52px" height="19px" viewBox="0 0 52 19" version="1.1" xmlns="http://www.w3.org/2000/svg" xmlns:xlink="http://www.w3.org/1999/xlink">
    <!-- Generator: Sketch 47.1 (45422) - http://www.bohemiancoding.com/sketch -->
    <title>Hatchback@1.5x</title>
    <desc>Created with Sketch.</desc>
    <defs></defs>
    <g id="01-Design:-Flow-and-UI" stroke="none" stroke-width="1" fill="none" fill-rule="evenodd">
        <g id="01.02-(Low-Severity-DTC,-Low-Battery)-Copy-3" transform="translate(-304.000000, -828.000000)">
            <g id="Hatchback" transform="translate(304.000000, 825.000000)">
                <g id="Layer_1">
                    <g id="Group">
                        <path d="M29.5,4.3 C29.5,4.3 34.4,6.3 38,9.3 L37.5,9.3 L36.1,9.3 C36.1,9.3 31.2,5.4 29,4.7 L29.1,4.5 L29.5,4.3 Z" id="Shape" fill="#545454"></path>
                        <path d="M6.1,5.1 L6.1,9.5 L3.8,9.4 C3.8,9.4 2.7,10.3 2.2,10.7 C1.7,11 0.7,12.3 0.7,12.3 L0.9,13.1 C0.7,13.2 0.3,14.7 0.3,14.7 L3.7,15.6 C6.2,13.1 8.7,13.6 8.7,13.6 C13.1,14 12.8,19.4 12.8,19.4 L37.4,19.4 C37,15.9 38.6,13.4 41.5,13.1 C44.2,12.8 46.4,14.9 46.4,14.9 L51.4,14.8 L51.4,14.2 C51.4,14.2 50.7,12.2 48.5,11.3 C45.3,10 38.4,9.3 38.4,9.3 L36.8,9.3 C33.8,6.4 29.1,4.6 29.1,4.6 L29.5,4.4 C28,3.6 23.7,3.3 19.8,3.4 C17.5,3.4 13.4,3.7 10.4,4 L10.4,4 C10.4,3.9 6.5,5.1 6.1,5.1 Z" id="Shape" fill="#E5E5E5"></path>
                        <polygon id="Shape" fill="#545454" points="3.8 9.3 6.2 5.4 6.8 5.4 6.2 9.4"></polygon>
                        <path d="M7.6,9.5 C7.5,9.4 11.2,4.7 18.4,4.5 L18.6,9.5 L7.6,9.5 Z" id="Shape" fill="#545454"></path>
                        <path d="M20.6,11.3 C20.6,11.3 20.4,11.4 20.4,11.8 C20.4,12.2 20.6,12.3 20.6,12.3 L23.2,12.4 C23.2,12.4 23.5,12.3 23.5,12.1 C23.5,11.8 23.2,11.7 23.2,11.7 L20.6,11.3 Z" id="Shape" fill="#545454"></path>
                        <path d="M3.6,10.5 L3.4,12.1 C3.4,12.1 1,12.1 0.6,12.5 L0.6,12.1 C0.6,12.1 1.5,10.8 2.8,10.5 L3.6,10.5 Z" id="Shape" fill="#D1D1D1"></path>
                        <path d="M48.3,12.1 L50.1,12.3 C50.5,12.6 51.2,13.7 51.2,13.7 L47.2,13.5 C47.1,13.4 48,12.2 48.3,12.1 Z" id="Shape" fill="#D1D1D1"></path>
                        <path d="M19.9,4.5 C19.9,4.5 27.5,3.7 33,7.7 C35.4,9.4 35.9,9.9 35.9,9.9 L35.5,10.4 L20.1,9.6 L19.9,4.5 Z" id="Shape" fill="#545454"></path>
                        <path d="M51.7,15.1 C51.7,14.4 51.4,14.3 51.4,14.3 C51.4,14.3 51.4,14.6 51.1,14.6 L46.5,14.6 C45.6,13.4 44.2,12.7 42.5,12.7 C40,12.7 38,14.4 37.6,16.7 L12.9,16.7 C12.1,14.2 10.5,12.8 8.1,12.7 C6.5,12.7 5.4,13.5 4.4,14.3 L4.2,14.2 C2.8,14.4 0.7,14.1 0.6,14.1 C0.5,14.1 0.2,14.3 0.2,14.3 C0.2,14.3 0,15.8 0,16 C0,16.2 0.1,16.2 0.1,16.2 C0,17.4 0.3,17.9 0.3,17.9 C0.9,18.8 2.1,19.1 2.7,19.2 C2.7,19.3 2.7,19.3 2.8,19.4 L13,19.4 L15.2,19.4 C15.2,19.4 38,19.4 38,19.5 L47,19.8 L47,19.8 L50.3,19.6 L51.8,17.8 L51.6,17.3 L51.9,17.2 L51.9,16.3 L51.7,15.1 Z" id="Shape" fill="#494949"></path>
                        <g transform="translate(4.000000, 13.000000)">
                            <circle id="Oval" fill="#545454" cx="4.1" cy="4.5" r="4"></circle>
                            <circle id="Oval" fill="#E6E6E6" cx="4.1" cy="4.5" r="3"></circle>
                            <path d="M6.6,2.7 C6.4,2.5 6.3,2.3 6.1,2.1 L4.6,3.5 L4.7,1.5 L4.2,1.5 L3.9,1.5 L3.8,3.5 L2.4,2 C2.2,2.2 2,2.3 1.8,2.5 L3.2,4 L1.2,3.9 L1.2,4.4 L1.2,4.7 L3.2,4.8 L1.7,6.2 C1.9,6.4 2,6.6 2.2,6.8 L3.7,5.4 L3.6,7.4 L4.1,7.4 L4.4,7.4 L4.5,5.4 L5.9,6.9 C6.1,6.7 6.3,6.6 6.5,6.4 L5.1,4.9 L7.1,5 L7.1,4.5 L7.1,4.2 L5.1,4.1 L6.6,2.7 Z" id="Shape" fill="#494949"></path>
                        </g>
                        <g transform="translate(38.000000, 13.000000)">
                            <circle id="Oval" fill="#545454" cx="4.5" cy="4.5" r="4"></circle>
                            <circle id="Oval" fill="#E6E6E6" cx="4.5" cy="4.5" r="3"></circle>
                            <path d="M6.9,2.7 C6.7,2.5 6.6,2.3 6.4,2.1 L4.9,3.5 L5,1.5 L4.5,1.5 L4.2,1.5 L4.1,3.5 L2.7,2 C2.5,2.2 2.3,2.3 2.1,2.5 L3.5,4 L1.5,3.9 L1.5,4.4 L1.5,4.7 L3.5,4.8 L2,6.3 C2.2,6.5 2.3,6.7 2.5,6.9 L4,5.5 L3.9,7.5 L4.4,7.5 L4.7,7.5 L4.8,5.5 L6.2,7 C6.4,6.8 6.6,6.7 6.8,6.5 L5.4,5 L7.4,5.1 L7.4,4.6 L7.4,4.3 L5.4,4.2 L6.9,2.7 Z" id="Shape" fill="#494949"></path>
                        </g>
                    </g>
                </g>
            </g>
        </g>
    </g>
</svg>