<?xml version="1.0" encoding="UTF-8"?>
<svg width="46px" height="19px" viewBox="0 0 46 19" version="1.1" xmlns="http://www.w3.org/2000/svg" xmlns:xlink="http://www.w3.org/1999/xlink">
    <!-- Generator: Sketch 47.1 (45422) - http://www.bohemiancoding.com/sketch -->
    <title>mini@1.5x</title>
    <desc>Created with Sketch.</desc>
    <defs></defs>
    <g id="01-Design:-Flow-and-UI" stroke="none" stroke-width="1" fill="none" fill-rule="evenodd">
        <g id="01.02-(Low-Severity-DTC,-Low-Battery)-Copy-3" transform="translate(-165.000000, -826.000000)">
            <g id="mini" transform="translate(165.000000, 826.500000)">
                <g id="Layer_1">
                    <g id="Group">
                        <polygon id="Shape" fill="#494949" points="44.3 9.5 39.9 6.7 9.5 6.4 2.3 8.6 0.7 12.2 1.1 14.7 12.5 14.9 43.2 14.9 44.9 13.9"></polygon>
                        <path d="M29,0.6 C29,0.6 32,3.2 35.2,6.1 C29.7,6.4 28.2,6.5 28.2,6.5 L7,5.5 L3.2,5.4 C3.2,5.4 4.8,2.7 6.1,1.1 C12.6,0.5 18.8,0.6 18.8,0.6 L26.4,0.9 L29,0.6 Z" id="Shape" fill="#7C7C7C"></path>
                        <path d="M44.9,10.4 C44.9,10.3 44.8,10.1 44.8,9.9 L44.8,9.9 L44.8,9.9 C44.7,9.5 44.5,8.4 43.5,7.8 C42.4,7.3 41,6.4 37.6,6.2 C36.8,6.1 35.8,6 34.8,6 C32.3,6 24.8,5.8 17.8,5.6 L17.6,1.2 L26.7,1.2 L30.8,5.9 L32.7,5.9 L27.9,1 L29.5,1 C29.5,1 29.1,0.3 27,0.2 C25.7,0.1 17.2,-0.1 9.8,0.2 C7.5,0.3 6.4,0.8 6.1,1.2 L6.5,1.2 L4.2,5.2 L3.4,5.2 L3.2,5.5 C3.2,5.5 1.5,5.3 1.5,9.8 L0.7,10.4 C0.7,10.4 0.1,11.2 0.7,13.2 C0.7,13.2 1.5,13 1.5,11.9 C1.5,10.8 3.3,8.4 6.8,8.4 C10.3,8.4 12.4,11.4 12.4,13.8 L32.7,13.8 C32.7,13.8 33,8.1 38.1,8.2 C42.7,8.2 43.8,12.6 44,14.2 L45,14.2 L45,13.4 L45.5,12.9 L45.5,11 C45.5,11 45,10.8 44.9,10.4 Z M5.8,5.1 L8,1.1 L16.9,1.1 L17.1,5.5 C17.1,5.5 8.3,5.2 5.8,5.1 Z" id="Shape" fill="#E5E5E5"></path>
                        <path d="M33.9,13.4 C33.8,16 35.9,18.1 38.5,18 C40.9,17.9 42.8,16 42.9,13.6 C43,11 40.9,8.9 38.3,9 C35.9,9.1 33.9,11.1 33.9,13.4 Z" id="Shape" fill="#545454"></path>
                        <circle id="Oval" fill="#E5E5E5" cx="38.4" cy="13.6" r="2"></circle>
                        <path d="M35.4,13.6 C35.4,15.3 36.7,16.6 38.4,16.6 C40.1,16.6 41.4,15.3 41.4,13.6 C41.4,11.9 40.1,10.6 38.4,10.6 C36.7,10.6 35.4,11.9 35.4,13.6 Z M35.9,13.7 C35.8,12.2 37,11 38.5,11.1 C39.7,11.2 40.7,12.2 40.8,13.4 C40.9,14.9 39.7,16.1 38.2,16 C37,16 36,15 35.9,13.7 Z" id="Shape" fill="#B2B2B3"></path>
                        <path d="M2.4,13.4 C2.3,16 4.4,18.1 7,18 C9.4,17.9 11.3,16 11.4,13.6 C11.5,11 9.4,8.9 6.8,9 C4.4,9.1 2.5,11.1 2.4,13.4 Z" id="Shape" fill="#545454"></path>
                        <circle id="Oval" fill="#E5E5E5" cx="6.9" cy="13.6" r="2"></circle>
                        <path d="M3.9,13.6 C3.9,15.3 5.2,16.6 6.9,16.6 C8.6,16.6 9.9,15.3 9.9,13.6 C9.9,11.9 8.6,10.6 6.9,10.6 C5.2,10.6 3.9,11.9 3.9,13.6 Z M4.4,13.7 C4.3,12.2 5.5,11 7,11.1 C8.2,11.2 9.2,12.2 9.3,13.4 C9.4,14.9 8.2,16.1 6.7,16 C5.5,16 4.5,15 4.4,13.7 Z" id="Shape" fill="#B2B2B3"></path>
                        <path d="M42.3,7.6 C42.3,7.5 42.4,7.4 42.4,7.4 L42.5,7.3 C42.9,7.4 43.1,7.6 43.4,7.7 C43.6,7.8 44,8.1 44.2,8.4 C44.3,8.6 44.2,8.7 44.2,8.9 C44.2,9 44.1,9.1 44.1,9.1 C44,9.2 43.8,9.3 43.5,9.2 C43.2,9.1 43,9 42.7,8.7 C42.4,8.5 42.2,8 42.3,7.6 Z" id="Shape" fill="#B7B7B7"></path>
                        <ellipse id="Oval" fill="#B7B7B7" transform="translate(2.639170, 7.709160) rotate(-77.607914) translate(-2.639170, -7.709160) " cx="2.63917" cy="7.5091604" rx="1.29999743" ry="1"></ellipse>
                        <path d="M45.5,12.6 L43.8,12.6 L43.8,12.9 C44,13.3 44,13.7 44,14 L45,14 L45,13.1 L45,13.1 L45,13.1 L45.5,12.6 Z" id="Shape" fill="#494949"></path>
                        <path d="M0.8,10.2 L1.5,9.6 L1.5,8.9 C2,9.3 2.6,9.5 3.1,9.6 C2,10.3 2,11 2,11.6 C2,12.7 0.9,13.3 0.9,13.3 C0.1,10.9 0.8,10.2 0.8,10.2 Z" id="Shape" fill="#494949"></path>
                    </g>
                </g>
            </g>
        </g>
    </g>
</svg>