<?xml version="1.0" encoding="UTF-8"?>
<svg width="54px" height="20px" viewBox="0 0 54 20" version="1.1" xmlns="http://www.w3.org/2000/svg" xmlns:xlink="http://www.w3.org/1999/xlink">
    <!-- Generator: Sketch 47.1 (45422) - http://www.bohemiancoding.com/sketch -->
    <title>sedan@1.5x</title>
    <desc>Created with Sketch.</desc>
    <defs></defs>
    <g id="01-Design:-Flow-and-UI" stroke="none" stroke-width="1" fill="none" fill-rule="evenodd">
        <g id="01.02-(Low-Severity-DTC,-Low-Battery)-Copy-3" transform="translate(-90.000000, -826.000000)">
            <g id="sedan" transform="translate(90.000000, 826.000000)">
                <g id="Layer_1">
                    <g id="Group">
                        <path d="M1.8,6.2 C1.8,6.2 1.6,4.9 3.5,5.2 L6.2,4.9 C6.2,4.9 13.6,1.4 15.8,1.2 C15.8,1.2 26,-0.1 31.6,1.6 C31.6,1.6 38.1,4 39.5,5.3 C39.5,5.3 48.9,6.8 50.6,7.8 C50.6,7.8 53,9.1 53.2,11.4 C53.2,11.4 54,13.8 53.1,15 C53.1,15 49.8,15.9 48.5,15.8 C48.5,15.8 49.2,10.9 44.8,10.2 C44.8,10.2 39.5,9.2 39.2,15.7 L16.2,15.8 C16.2,15.8 15.6,7.7 8.8,10.8 C8.8,10.8 6.4,12.1 6.9,15.4 L2.2,14.6 C2.2,14.6 0.8,14.4 0.7,13.8 L0.5,10.8 L1.8,6.2 Z" id="Shape" fill="#E5E5E5"></path>
                        <path d="M38.1,14.9 L37.9,14.8 C39.7,9.5 39.6,6.9 39.6,6.9 L39.9,6.9 C39.9,6.6 39.9,7.5 39.7,8.9 C39.5,10.1 39,12.1 38.1,14.9 Z" id="Shape" fill="#D1D1D1"></path>
                        <path d="M18.3,14.7 C18.2,12.8 13.3,9 13.3,9 L13.3,9 C11.9,7.6 13.3,5.7 13.3,5.7 L13.7,5.7 C13.7,5.7 12.3,7.6 13.6,8.8 C14.1,9.2 18.7,12.7 18.7,14.6 L18.3,14.7 Z" id="Shape" fill="#D1D1D1"></path>
                        <polygon id="Shape" fill="#D1D1D1" points="27.7 14.9 26 5.9 26.3 5.9 28 14.9"></polygon>
                        <path d="M52.4,9.3 C52.4,9.3 50.2,8.8 49.3,9 C49.3,9 49,9 49.2,9.2 C49.2,9.2 49.8,10 50.1,10.1 C50.1,10.1 53.1,11 53.3,11.7 C53.3,11.8 53.3,10.4 52.4,9.3 Z" id="Shape" fill="#D1D1D1"></path>
                        <path d="M1.5,7.1 C1.5,7.1 3.6,7.3 4,7.6 C4,7.6 4.5,7.7 3.8,8.2 C3.8,8.2 3.6,8.8 2.7,9 C2.7,9 1,8.9 0.8,9.5 C0.9,9.5 1,8.7 1.5,7.1 Z" id="Shape" fill="#D1D1D1"></path>
                        <path d="M53.5,14.5 L49,14.5 C48.9,11.8 46.7,9.7 44,9.7 C41.3,9.7 39,11.9 39,14.7 L16,14.4 C15.8,11.8 13.7,9.7 11,9.7 C8.5,9.7 6.5,11.5 6.1,13.9 L0.5,13.2 C0.5,13.2 0.2,14.5 1.7,14.6 L7.2,15.3 L7.2,15.2 L13.1,15.7 L13.1,15.9 L39.1,16.1 L39.1,16.1 L40.2,16.1 L40.7,16.1 L40.7,16.1 L47.4,16.2 L47.4,16.2 L47.7,16.2 L48.4,16.2 L48.4,16.2 L52.4,16.1 C53.7,16.1 53.5,14.5 53.5,14.5 Z" id="Shape" fill="#494949"></path>
                        <path d="M15.5,14.7 L15.5,14.7 C15.5,12.2 13.5,10.2 11,10.2 C8.5,10.2 6.5,12.2 6.5,14.7 L6.5,14.7 L6.5,14.7 L6.5,14.7 C6.5,15.3 6.6,15.9 6.9,16.5 C7.6,18.1 9.2,19.2 11,19.2 C13.5,19.2 15.5,17.2 15.5,14.7 L15.5,14.7 Z" id="Shape" fill="#545454"></path>
                        <path d="M13.5,14.7 C13.5,16.1 12.4,17.2 11,17.2 C9.6,17.2 8.5,16.1 8.5,14.7 C8.5,13.3 9.6,12.2 11,12.2 C12.4,12.2 13.5,13.4 13.5,14.7" id="Shape" fill="#E5E5E5"></path>
                        <path d="M48.5,14.7 L48.5,14.7 C48.5,12.2 46.5,10.2 44,10.2 C41.5,10.2 39.5,12.2 39.5,14.7 L39.5,14.7 L39.5,14.7 L39.5,14.7 C39.5,15.3 39.6,15.9 39.9,16.5 C40.6,18.1 42.2,19.2 44,19.2 C46.5,19.2 48.5,17.2 48.5,14.7 L48.5,14.7 Z" id="Shape" fill="#545454"></path>
                        <path d="M46.5,14.7 C46.5,16.1 45.4,17.2 44,17.2 C42.6,17.2 41.5,16.1 41.5,14.7 C41.5,13.3 42.6,12.2 44,12.2 C45.4,12.2 46.5,13.4 46.5,14.7" id="Shape" fill="#E5E5E5"></path>
                        <path d="M25.2,1.8 L26.1,6.3 C26.1,6.3 38.7,7.3 39.8,7.2 C39.8,7.2 40.3,6.9 38.9,6.2 L34.1,3.7 C34.1,3.7 32,2.4 29.5,2.2 C29.5,2.2 27.6,2 25.2,1.8 Z" id="Shape" fill="#545454"></path>
                        <path d="M31.1,3.2 C31.1,3.2 35.1,4.6 36.7,6.1 L35,6.5 L26.7,5.8 L26.1,2.5 C26.2,2.4 30,2.6 31.1,3.2 Z" id="Shape" fill="#7C7C7C"></path>
                        <path d="M23.8,1.8 L24,6.1 L13.2,5.7 C13.2,5.7 15.3,2.1 17.8,2.1 C17.8,2.1 22.4,1.7 23.8,1.8 Z" id="Shape" fill="#545454"></path>
                        <path d="M18.1,2.8 L22.4,2.5 C22.4,2.5 23.1,2.4 23,3.2 C23,3.2 23,4 23.1,5.5 L15.1,5.3 C15.1,5.3 15.8,3.5 18.1,2.8 Z" id="Shape" fill="#7C7C7C"></path>
                    </g>
                </g>
            </g>
        </g>
    </g>
</svg>