<?xml version="1.0" encoding="UTF-8"?>
<svg width="40px" height="23px" viewBox="0 0 40 23" version="1.1" xmlns="http://www.w3.org/2000/svg" xmlns:xlink="http://www.w3.org/1999/xlink">
    <!-- Generator: Sketch 47.1 (45422) - http://www.bohemiancoding.com/sketch -->
    <title>car-1@1.5x</title>
    <desc>Created with Sketch.</desc>
    <defs></defs>
    <g id="01-Design:-Flow-and-UI" stroke="none" stroke-width="1" fill="none" fill-rule="evenodd">
        <g id="01.02-(Low-Severity-DTC,-Low-Battery)-Copy-3" transform="translate(-25.000000, -824.000000)">
            <g id="car-1" transform="translate(25.000000, 824.500000)">
                <g id="Group">
                    <path d="M0.2,15.3 L0.3,17.2 C0.3,17.6 0.6,18 1,18.1 L2.3,18.4 L7.3,19.4 L36,19.3 C37.8,19.3 39.2,17.8 39,16.1 L38.8,14.1 C38.6,11.7 37,9.4 34.7,8.5 L33,8.1 L31.9,8 C27.4,3.4 23.9,0.9 21.4,0.6 C17.1,-4.5519144e-15 12.5,0.4 8.1,0.9 C6.2,1.1 5.2,1.8 4.5,3.2 L2.3,8.2 L1.5,14.1 L1,14.2 C0.5,14.3 0.2,14.8 0.2,15.3 Z M6.7,6.4 L7.6,4.3 C8.1,3.2 8.9,2.7 10.5,2.5 C13.3,2.2 14,2.2 16.8,2.2 C18.4,2.2 19.9,2.3 21.4,2.5 C23.8,2.8 25.9,4 29.8,8 L15.6,8.2 L6.7,6.4 Z" id="Shape" fill="#E5E5E5"></path>
                    <path d="M26.9,16.5 C27.4,14.2 27.7,12.1 27.6,10.3 C27.6,9.3 27.5,8.6 27.4,8.2 L30.2,8.2 C26.6,4 23.6,1.9 21.2,1.6 C19.8,1.4 18.3,1.3 16.6,1.3 C13.8,1.3 13.1,1.3 10.3,1.6 C8.6,1.8 7.9,2.3 7.4,3.4 L6.5,6.5 L12.2,7.6 C11,10.4 11.6,13.8 12.5,16.5 L3,16.5 L3,18.5 L7.4,19.4 L36.2,19.3 C37.9,19.3 39.2,18 39.2,16.5 L26.9,16.5 L26.9,16.5 Z M24.8,16.4 L14.8,16.4 C13.2,12.1 13.6,9.6 14.3,8.2 L14.4,8 L15.5,8.2 L25.3,8.2 L25.3,8.3 C25.3,8.3 25.5,9 25.5,10.4 C25.6,12.5 25.2,14.7 24.8,16.4 Z" id="Shape" fill="#7C7C7C"></path>
                    <path d="M1.7,12.9 L1.7,12.9 L2.3,9 L2.4,8.9 C3.2,8.9 3.8,9.3 3.8,9.8 L3.6,11.7 C3.5,12.3 2.7,12.8 1.7,12.9" id="Shape" fill="#727273"></path>
                    <path d="M6.4,12.4 C9.4,12.4 11.9,15 11.9,18.1 C11.9,18.5 11.8,19 11.8,19.4 L7.7,19.4 L2.8,18.3 L1.5,18 C1.3,17.9 1,17.8 0.9,17.5 C1.2,14.7 3.5,12.4 6.4,12.4" id="Shape" fill="#CCCBCB"></path>
                    <path d="M39.2,16.7 C39,18.2 37.8,19.4 36.2,19.3 L28.3,19.3 C28.2,18.9 28.2,18.5 28.2,18 C28.2,14.8 30.7,12.3 33.8,12.3 C36.4,12.4 38.6,14.2 39.2,16.7" id="Shape" fill="#CCCBCB"></path>
                    <path d="M2.7,18.3 L1.8,18.1 C1.8,15.5 3.8,13.4 6.3,13.4 C8.8,13.4 10.8,15.5 10.8,18.1 C10.8,18.5 10.7,19 10.6,19.4 L7.5,19.4 L2.7,18.3 Z" id="Shape" fill="#444444"></path>
                    <path d="M29.4,19.4 C29.3,19 29.2,18.6 29.2,18.1 C29.2,15.5 31.2,13.4 33.7,13.4 C36.2,13.4 38.2,15.5 38.2,18.1 L38.2,18.4 C37.7,19 36.9,19.3 36.1,19.3 L29.4,19.4 Z" id="Shape" fill="#444444"></path>
                    <path d="M37.7,17.9 C37.7,20.1 35.9,21.9 33.7,21.9 C31.5,21.9 29.7,20.1 29.7,17.9 C29.7,15.7 31.5,13.9 33.7,13.9 C35.9,13.9 37.7,15.7 37.7,17.9" id="Shape" fill="#4F4F4F"></path>
                    <path d="M35.9,17.9 C35.9,19.1 34.9,20.1 33.7,20.1 C32.5,20.1 31.5,19.1 31.5,17.9 C31.5,16.7 32.5,15.7 33.7,15.7 C34.9,15.7 35.9,16.7 35.9,17.9" id="Shape" fill="#CCCBCB"></path>
                    <g transform="translate(2.000000, 13.000000)" id="Shape">
                        <path d="M8.5,5 C8.5,7.3 6.6,9.1 4.4,9.1 C2.1,9.1 0.3,7.3 0.3,5 C0.3,2.7 2.2,0.9 4.4,0.9 C6.7,0.9 8.5,2.7 8.5,5" fill="#4F4F4F"></path>
                        <path d="M6.6,5 C6.6,6.2 5.6,7.2 4.4,7.2 C3.2,7.2 2.2,6.2 2.2,5 C2.2,3.8 3.2,2.8 4.4,2.8 C5.6,2.8 6.6,3.8 6.6,5" fill="#CCCBCB"></path>
                    </g>
                    <path d="M37.8,12.9 C37.6,13.1 37,12.7 36.5,11.9 C36,11.1 35.8,10.3 36.1,10 C36.3,9.8 36.9,10.2 37.4,11 C37.8,11.8 38,12.7 37.8,12.9" id="Shape" fill="#727273"></path>
                </g>
            </g>
        </g>
    </g>
</svg>