<?xml version="1.0" encoding="UTF-8"?>
<svg width="52px" height="15px" viewBox="0 0 52 15" version="1.1" xmlns="http://www.w3.org/2000/svg" xmlns:xlink="http://www.w3.org/1999/xlink">
    <!-- Generator: Sketch 47.1 (45422) - http://www.bohemiancoding.com/sketch -->
    <title>sports@1.5x</title>
    <desc>Created with Sketch.</desc>
    <defs></defs>
    <g id="01-Design:-Flow-and-UI" stroke="none" stroke-width="1" fill="none" fill-rule="evenodd">
        <g id="01.02-(Low-Severity-DTC,-Low-Battery)-Copy-3" transform="translate(-162.000000, -868.000000)">
            <g id="sports" transform="translate(162.000000, 868.000000)">
                <g id="Layer_1">
                    <g id="Group">
                        <path d="M3.9,13.3 C3.9,13.3 1.4,11.9 0.1,9.7 L0.1,6 C0.1,6 1.5,4 9.9,4.1 C9.9,4.1 14.7,0.4 23.1,0.4 C30.9,0.4 33.9,4.5 38,4.5 C38,4.5 47,4.3 51,10.5 C51,10.5 51.5,11 49.7,12.2 C49.7,12.2 50.8,12.4 50.3,13.4 L3.9,13.3 Z" id="Shape" fill="#E5E5E5"></path>
                        <path d="M51.1,10.6 L51.1,10.6 L45.8,10.6 C45.7,7.8 43.5,5.6 40.8,5.6 C38.1,5.6 35.9,7.8 35.8,10.5 L13.1,10.4 C13,7.7 10.8,5.5 8.1,5.5 C5.9,5.5 4,7 3.4,9 L0.1,8.4 L0.1,9.6 C1.4,11.8 3.9,13.2 3.9,13.2 L3.9,13.2 C3.9,13.2 3.9,13.3 4,13.3 L12.3,13.3 C12.3,13.3 12.3,13.2 12.4,13.2 L36.6,13.3 C36.6,13.3 36.6,13.4 36.7,13.4 L45.1,13.4 L45.2,13.3 L50.6,13.3 C51,12.3 50,12.1 50,12.1 C50.8,11.3 51.1,10.8 51.1,10.6 Z" id="Shape" fill="#494949"></path>
                        <path d="M15.1,5.1 L14.9,4.1 C14.9,4.1 15.5,1.9 20.4,1.3 C25.3,0.6 30.5,2.9 34.9,5.2 L15.1,5.2 L15.1,5.1 Z" id="Shape" fill="#7C7C7C"></path>
                        <polygon id="Shape" fill="#494949" points="4.6 5.2 2.3 5.2 1.6 3.2 3.1 3.2"></polygon>
                        <path d="M3.5,7.4 C3.5,7.5 3.4,7.7 3.2,7.7 L2,7.7 C1.9,7.7 1.7,7.6 1.7,7.4 L1.7,6.8 C1.7,6.7 1.8,6.5 2,6.5 L3.2,6.5 C3.3,6.5 3.5,6.6 3.5,6.8 L3.5,7.4 Z" id="Shape" fill="#E0E0E0"></path>
                        <path d="M30.1,5 L30.8,5 L28.7,2.3 C28.4,2.2 28.1,2.1 27.8,2 L30.1,5 Z" id="Shape" fill="#99999A"></path>
                        <g transform="translate(3.000000, 6.000000)">
                            <circle id="Oval" fill="#545454" cx="5.1" cy="4.5" r="4.5"></circle>
                            <circle id="Oval" fill="#E5E6E7" cx="5.1" cy="4.5" r="4"></circle>
                            <circle id="Oval" fill="#545454" cx="5.1" cy="4.5" r="3"></circle>
                            <g transform="translate(1.000000, 1.000000)" id="Shape" fill="#E5E6E7">
                                <path d="M4.2,3.7 C4.1,3.7 4.1,3.7 4,3.6 C3.9,3.5 3.9,3.4 4,3.3 L6.2,0.8 C6.3,0.7 6.4,0.7 6.5,0.8 C6.6,0.9 6.6,1 6.5,1.1 L5.1,2.7 L7,1.7 C7.1,1.6 7.2,1.7 7.3,1.8 C7.4,1.9 7.3,2 7.2,2.1 L4.2,3.7 L4.2,3.7 Z"></path>
                                <path d="M6.7,6 C6.6,6 6.6,6 6.5,5.9 L4,3.6 C3.9,3.5 3.9,3.4 4,3.3 C4.1,3.2 4.2,3.2 4.3,3.2 L7.4,4.5 C7.5,4.5 7.6,4.7 7.5,4.8 C7.5,4.9 7.3,5 7.2,4.9 L5.2,4.1 L6.8,5.5 C6.9,5.6 6.9,5.7 6.8,5.8 C6.9,6 6.8,6 6.7,6 Z"></path>
                                <path d="M3.9,7 L3.9,7 C3.8,7 3.7,6.9 3.7,6.8 L3.9,4.7 L2.9,6.6 C2.8,6.7 2.7,6.8 2.6,6.7 C2.5,6.6 2.4,6.5 2.5,6.4 L4,3.4 C4,3.3 4.2,3.3 4.3,3.3 C4.4,3.3 4.5,3.4 4.5,3.5 L4.1,6.8 C4.1,6.9 4,7 3.9,7 Z"></path>
                                <path d="M0.9,4.4 C0.8,4.4 0.7,4.3 0.7,4.2 C0.7,4.1 0.8,4 0.9,3.9 L3,3.5 L0.8,3.2 C0.7,3.2 0.6,3.1 0.6,3 C0.6,2.9 0.7,2.8 0.9,2.8 L4.3,3.3 C4.4,3.3 4.5,3.4 4.5,3.5 C4.5,3.6 4.4,3.7 4.3,3.7 L0.9,4.4 L0.9,4.4 Z"></path>
                                <path d="M4.2,3.7 C4.1,3.7 4,3.7 4,3.6 L2.4,0.7 C2.3,0.6 2.4,0.5 2.5,0.4 C2.6,0.3 2.7,0.4 2.8,0.5 L3.8,2.3 L3.5,0.2 C3.5,0.1 3.6,0 3.7,0 C3.8,0 3.9,0.1 4,0.2 L4.5,3.5 C4.5,3.6 4.4,3.7 4.2,3.7 L4.2,3.7 Z"></path>
                            </g>
                        </g>
                        <path d="M46.9,6.7 C46.4,7 46.4,7.3 46.4,7.7 C46.5,8.4 47.5,8.9 48.5,8.7 C48.8,8.7 49.1,8.6 49.3,8.5 C48.9,8 48,7.3 46.9,6.7 Z" id="Shape" fill="#D1D1D1"></path>
                        <path d="M15.3,4.3 C15.3,4.3 15.9,2.1 20.7,1.5 C25.3,0.8 30.3,3 34.5,5.1 L34.9,5.1 C30.6,2.9 25.3,0.5 20.4,1.2 C15.5,1.9 14.9,4.1 14.9,4.1 L15.1,5.1 L15.4,5.1 L15.3,4.3 Z" id="Shape" fill="#545454"></path>
                        <path d="M0.1,2.6 L5.1,2.6 C5.1,2.6 5,3.6 3.9,3.6 C3.9,3.6 0.7,3.6 0.1,2.6 Z" id="Shape" fill="#D1D1D1"></path>
                        <g transform="translate(36.000000, 6.000000)">
                            <circle id="Oval" fill="#545454" cx="4.7" cy="4.5" r="4.5"></circle>
                            <circle id="Oval" fill="#E5E6E7" cx="4.7" cy="4.5" r="4"></circle>
                            <circle id="Oval" fill="#545454" cx="4.7" cy="4.5" r="3"></circle>
                            <g transform="translate(1.000000, 1.000000)" id="Shape" fill="#E5E6E7">
                                <path d="M3.9,3.7 C3.8,3.7 3.8,3.7 3.7,3.6 C3.6,3.5 3.6,3.4 3.7,3.3 L5.9,0.8 C6,0.7 6.1,0.7 6.2,0.8 C6.3,0.9 6.3,1 6.2,1.1 L4.8,2.7 L6.7,1.7 C6.8,1.6 6.9,1.7 7,1.8 C7.1,1.9 7,2 6.9,2.1 L3.9,3.7 L3.9,3.7 Z"></path>
                                <path d="M6.4,6 C6.3,6 6.3,6 6.2,5.9 L3.7,3.6 C3.6,3.5 3.6,3.4 3.7,3.3 C3.8,3.2 3.9,3.2 4,3.2 L7.1,4.5 C7.2,4.5 7.3,4.7 7.2,4.8 C7.2,4.9 7,5 6.9,4.9 L4.9,4.1 L6.5,5.5 C6.6,5.6 6.6,5.7 6.5,5.8 C6.5,6 6.5,6 6.4,6 Z"></path>
                                <path d="M3.5,7 L3.5,7 C3.4,7 3.3,6.9 3.3,6.8 L3.5,4.7 L2.5,6.6 C2.4,6.7 2.3,6.8 2.2,6.7 C2.1,6.6 2,6.5 2.1,6.4 L3.6,3.4 C3.6,3.3 3.8,3.3 3.9,3.3 C4,3.3 4.1,3.4 4.1,3.5 L3.7,6.8 C3.7,6.9 3.7,7 3.5,7 Z"></path>
                                <path d="M0.5,4.4 C0.4,4.4 0.3,4.3 0.3,4.2 C0.3,4.1 0.4,4 0.5,3.9 L2.6,3.5 L0.4,3.2 C0.3,3.2 0.2,3.1 0.2,3 C0.2,2.9 0.3,2.8 0.5,2.8 L3.9,3.3 C4,3.3 4.1,3.4 4.1,3.5 C4.1,3.6 4,3.7 3.9,3.7 L0.5,4.4 L0.5,4.4 Z"></path>
                                <path d="M3.9,3.7 C3.8,3.7 3.7,3.7 3.7,3.6 L2,0.7 C1.9,0.6 2,0.5 2.1,0.4 C2.2,0.3 2.3,0.4 2.4,0.5 L3.4,2.3 L3.1,0.2 C3.1,0.1 3.2,0 3.3,0 C3.4,0 3.5,0.1 3.6,0.2 L4.1,3.5 C4.1,3.6 4.1,3.7 3.9,3.7 L3.9,3.7 Z"></path>
                            </g>
                        </g>
                    </g>
                </g>
            </g>
        </g>
    </g>
</svg>