<?xml version="1.0" encoding="UTF-8"?>
<svg width="52px" height="23px" viewBox="0 0 52 23" version="1.1" xmlns="http://www.w3.org/2000/svg" xmlns:xlink="http://www.w3.org/1999/xlink">
    <!-- Generator: Sketch 47.1 (45422) - http://www.bohemiancoding.com/sketch -->
    <title>SUV@1.5x</title>
    <desc>Created with Sketch.</desc>
    <defs></defs>
    <g id="01-Design:-Flow-and-UI" stroke="none" stroke-width="1" fill="none" fill-rule="evenodd">
        <g id="01.02-(Low-Severity-DTC,-Low-Battery)-Copy-3" transform="translate(-19.000000, -864.000000)">
            <g id="SUV" transform="translate(19.000000, 864.000000)">
                <g id="Layer_1">
                    <g id="Group">
                        <path d="M0.464285714,11.7875 L0.464285714,14.0875 C0.464285714,16.1 2.04285714,17.7291667 3.99285714,17.7291667 L47.8214286,18.4 L48.1,18.4 C49.9571429,18.4 51.4428571,16.8666667 51.4428571,15.0458333 L51.4428571,12.65 L50.7,11.9791667 C50.6071429,10.7333333 50.2357143,9.775 49.6785714,9.10416667 C47.3571429,7.85833333 43.7357143,7.1875 39,6.9 L33.6142857,2.875 C31.6642857,1.4375 29.3428571,0.575 26.8357143,0.575 C22.75,0.383333333 18.7571429,0.2875 14.8571429,0.2875 C12.2571429,0.2875 9.75,0.383333333 7.15,0.670833333 L4.73571429,0.958333333 L4.73571429,1.24583333 L5.57142857,1.725 L1.39285714,7.09166667 L0.928571429,11.2125 L0.464285714,11.7875 Z M10.0285714,3.92916667 L10.6785714,1.725 C10.7714286,1.53333333 10.9571429,1.34166667 11.1428571,1.24583333 C13.65,0.766666667 23.9571429,0.958333333 26.4642857,1.24583333 C29.4357143,1.62916667 30.55,2.20416667 32.3142857,3.54583333 L36.2142857,6.70833333 L34.8214286,7.1875 L17.2714286,6.0375 C15.4142857,5.94166667 13.5571429,5.55833333 11.7928571,4.98333333 L10.3071429,4.50416667 C10.1214286,4.6 9.93571429,4.21666667 10.0285714,3.92916667 Z" id="Shape" fill="#E5E5E5"></path>
                        <path d="M9.28571429,4.3125 L10.0285714,1.62916667 C10.1214286,1.34166667 10.3071429,1.15 10.5857143,1.05416667 C13.2785714,0.479166667 23.9571429,0.670833333 26.5571429,1.05416667 C29.7142857,1.4375 31.1071429,2.49166667 33.0571429,4.12083333 L37.1428571,7.57083333 L35.3785714,8.3375 L16.9928571,6.99583333 C15.0428571,6.9 13.0928571,6.42083333 11.2357143,5.75 L9.75,5.175 C9.37857143,5.07916667 9.19285714,4.69583333 9.28571429,4.3125" id="Shape" fill="#7C7C7C"></path>
                        <path d="M26,7.85833333 L26,7.57083333 L25.6285714,6.0375 C25.4428571,5.27083333 24.7,4.69583333 23.8642857,4.69583333 L23.8642857,4.69583333 L23.2142857,1.24583333 L22.3785714,1.24583333 L23.0285714,5.36666667 L23.0285714,5.65416667 L23.2142857,6.51666667 L23.2142857,6.6125 L23.2142857,6.6125 L23.4928571,7.85833333 L26,7.85833333 Z" id="Shape" fill="#545454"></path>
                        <path d="M9.93571429,6.13333333 C10.7714286,6.51666667 11.6071429,6.80416667 12.5357143,6.99583333 L12.2571429,5.65416667 C12.0714286,4.79166667 11.4214286,4.12083333 10.5857143,4.12083333 L10.4928571,4.12083333 C10.0285714,4.12083333 9.65714286,4.6 9.75,5.175 L9.93571429,6.13333333 Z" id="Shape" fill="#545454"></path>
                        <polygon id="Shape" fill="#B7B7B7" points="5.01428571 2.68333333 4.92142857 2.68333333 5.57142857 2.875 3.34285714 6.51666667 1.85714286 6.42083333"></polygon>
                        <path d="M50.4214286,9.29583333 C50.7,9.775 50.7928571,10.35 50.8857143,11.0208333 L50.8857143,11.9791667 L50.7,11.9791667 C50.2357143,11.9791667 49.7714286,11.6916667 49.4928571,11.3083333 L48.1,9.10416667 L50.4214286,9.29583333 Z" id="Shape" fill="#7C7C7C"></path>
                        <path d="M50.7928571,10.5416667 C50.7928571,10.1583333 50.6071429,9.58333333 50.4214286,9.29583333 L48.0071429,9.10416667 L48.9357143,10.5416667 L50.7928571,10.5416667 Z" id="Shape" fill="#B7B7B7"></path>
                        <path d="M0.928571429,10.6375 L1.20714286,7.95416667 L4.08571429,7.95416667 C4.55,7.95416667 4.82857143,8.43333333 4.64285714,8.81666667 L4.08571429,9.96666667 C3.80714286,10.5416667 3.25,10.8291667 2.69285714,10.8291667 L0.928571429,10.6375 Z" id="Shape" fill="#B7B7B7"></path>
                        <polygon id="Shape" fill="#E5E5E5" points="22.1928571 1.24583333 21.3571429 1.15 22.1928571 7.85833333 23.2142857 7.85833333"></polygon>
                        <path d="M9.28571429,4.025 C9.19285714,4.40833333 9.28571429,5.07916667 9.56428571,5.175 L11.05,5.75 C12.9071429,6.325 14.7642857,6.70833333 16.6214286,6.80416667 L34.0785714,7.95416667 L36.5857143,6.99583333 C38.4428571,8.3375 35.75,9.29583333 34.7285714,8.625 L16.5285714,7.475 C14.5785714,7.37916667 12.5357143,6.99583333 10.6785714,6.42083333 L9.28571429,6.0375 C8.91428571,5.94166667 8.54285714,5.65416667 8.35714286,5.27083333 C8.17142857,4.8875 8.17142857,4.50416667 8.26428571,4.12083333 L9.28571429,4.025 Z" id="Shape" fill="#E5E5E5"></path>
                        <path d="M22.8428571,15.8125 L22.9357143,9.58333333 C22.9357143,9.00833333 22.8428571,8.43333333 22.6571429,7.85833333 L22.4714286,7.28333333 L22.9357143,7.37916667 L23.1214286,7.85833333 C23.3071429,8.43333333 23.4,9.10416667 23.4,9.67916667 L23.3071429,15.9083333 L22.8428571,15.8125 Z" id="Shape" fill="#B7B7B7"></path>
                        <path d="M9.47142857,11.5958333 L9.00714286,9.4875 C8.72857143,8.05 8.82142857,6.70833333 9.19285714,5.65416667 L9.47142857,4.8875 L9.65714286,5.175 L9.47142857,5.75 C9.1,6.9 9.00714286,8.14583333 9.28571429,9.39166667 L9.75,11.5 L9.47142857,11.5958333 Z" id="Shape" fill="#B7B7B7"></path>
                        <path d="M9.28571429,4.6 C9.28571429,4.21666667 9.84285714,2.39583333 9.84285714,2.39583333 C9.84285714,2.3 10.1214286,1.34166667 10.1214286,1.34166667 C10.2142857,1.15 10.3071429,1.05416667 10.4928571,1.05416667 C13.1857143,0.479166667 24.2357143,0.670833333 26.9285714,1.05416667 C30.1785714,1.4375 31.2928571,2.3 33.2428571,3.92916667 L36.9571429,7.09166667 L36.1214286,7.37916667 L32.4071429,4.21666667 C30.6428571,2.77916667 29.6214286,2.0125 26.7428571,1.62916667 C24.3285714,1.34166667 14.3928571,1.15 11.9785714,1.62916667 C11.7928571,1.62916667 11.6071429,1.82083333 11.5142857,2.10833333 L10.6785714,4.79166667 C10.5857143,5.175 10.6785714,5.55833333 10.9571429,5.65416667 C10.9571429,5.65416667 9.56428571,5.27083333 9.47142857,5.07916667 C9.28571429,4.8875 9.28571429,4.8875 9.28571429,4.6 Z" id="Shape" fill="#545454"></path>
                        <path d="M37.2357143,15.9083333 L36.7714286,15.9083333 L36.9571429,10.925 C36.9571429,9.96666667 36.6785714,9.00833333 36.1214286,8.14583333 L35.5642857,7.475 L35.9357143,7.28333333 L36.4928571,7.95416667 C37.1428571,8.9125 37.4214286,9.87083333 37.4214286,10.925 L37.2357143,15.9083333 Z" id="Shape" fill="#B7B7B7"></path>
                        <path d="M51.5357143,16.4833333 C51.5357143,16.4833333 50.5142857,16.3875 48.6571429,16.2916667 C48.5642857,13.8958333 46.7071429,11.9791667 44.2928571,11.8833333 L42.0642857,11.7875 C39.65,11.6916667 37.7,13.4166667 37.4214286,15.7166667 C30.2714286,15.4291667 21.6357143,15.1416667 14.4857143,14.8541667 C14.1142857,12.8416667 12.35,11.3083333 10.2142857,11.3083333 L7.98571429,11.2125 C5.85,11.1166667 3.99285714,12.5541667 3.43571429,14.4708333 C1.57857143,14.375 0.464285714,14.375 0.464285714,14.375 L0.464285714,14.6625 C0.464285714,16.2916667 1.57857143,17.7291667 3.06428571,18.1125 L3.06428571,18.1125 L3.15714286,18.1125 L3.34285714,18.1125 C3.52857143,18.1125 3.71428571,18.2083333 3.99285714,18.2083333 L14.4857143,18.4 L14.4857143,18.4 L37.2357143,18.7833333 L37.2357143,18.7833333 L48.0071429,18.975 L48.1928571,18.975 L48.2857143,18.975 L48.2857143,18.975 L48.6571429,18.975 L48.6571429,18.975 C50.05,18.7833333 51.1642857,17.825 51.5357143,16.4833333 Z" id="Shape" fill="#494949"></path>
                        <g transform="translate(3.714286, 12.458333)" id="Shape">
                            <path d="M0.371428571,5.4625 C0.371428571,8.14583333 2.41428571,10.2541667 5.01428571,10.2541667 C7.61428571,10.2541667 9.65714286,8.14583333 9.65714286,5.4625 C9.65714286,2.77916667 7.61428571,0.670833333 5.01428571,0.670833333 C2.50714286,0.670833333 0.464285714,2.77916667 0.371428571,5.4625" fill="#545454"></path>
                            <path d="M2.69285714,5.4625 C2.69285714,6.80416667 3.71428571,7.85833333 5.01428571,7.85833333 C6.31428571,7.85833333 7.33571429,6.80416667 7.33571429,5.4625 C7.33571429,4.12083333 6.31428571,3.06666667 5.01428571,3.06666667 C3.80714286,3.06666667 2.78571429,4.12083333 2.69285714,5.4625" fill="#E5E5E5"></path>
                        </g>
                        <g transform="translate(38.071429, 12.458333)" id="Shape">
                            <path d="M0.278571429,5.4625 C0.278571429,8.14583333 2.32142857,10.2541667 4.92142857,10.2541667 C7.52142857,10.2541667 9.56428571,8.14583333 9.56428571,5.4625 C9.56428571,2.77916667 7.52142857,0.670833333 4.92142857,0.670833333 C2.41428571,0.670833333 0.278571429,2.77916667 0.278571429,5.4625" fill="#545454"></path>
                            <path d="M2.6,5.4625 C2.6,6.80416667 3.62142857,7.85833333 4.92142857,7.85833333 C6.22142857,7.85833333 7.24285714,6.80416667 7.24285714,5.4625 C7.24285714,4.12083333 6.22142857,3.06666667 4.92142857,3.06666667 C3.71428571,3.06666667 2.6,4.12083333 2.6,5.4625" fill="#E5E5E5"></path>
                        </g>
                    </g>
                </g>
            </g>
        </g>
    </g>
</svg>