<?xml version="1.0" encoding="UTF-8"?>
<svg width="52px" height="20px" viewBox="0 0 52 20" version="1.1" xmlns="http://www.w3.org/2000/svg" xmlns:xlink="http://www.w3.org/1999/xlink">
    <!-- Generator: Sketch 47.1 (45422) - http://www.bohemiancoding.com/sketch -->
    <title>Truck@1.5x</title>
    <desc>Created with Sketch.</desc>
    <defs></defs>
    <g id="01-Design:-Flow-and-UI" stroke="none" stroke-width="1" fill="none" fill-rule="evenodd">
        <g id="01.02-(Low-Severity-DTC,-Low-Battery)-Copy-3" transform="translate(-234.000000, -826.000000)">
            <g id="Truck" transform="translate(234.000000, 826.000000)">
                <g id="Layer_1">
                    <g id="Group">
                        <path d="M50.4,10.7 L50.7,7.9 C50.6,7 49.9,6.6 49.9,6.6 C45.9,5 38,4.4 38,4.4 L32.2,0.8 C29.5,0 24.3,0 24.3,0 C23.3,0 23.1,0.8 23.1,0.8 C23.1,0.8 22.2,4.8 22.1,5.4 L1,4.6 C1,4.6 0.1,8.5 1,10.9 C1,10.9 3.7,11 3.8,13.9 L6.8,14.1 C6.8,14.1 7.5,8.6 12.6,8.9 C12.6,8.9 16.8,9.1 17.2,14.4 L22.6,14.6 L48.3,16 L48.9,16 C49.5,15.9 51.3,14.8 51.3,14.8 C51.4,14 51.6,11.8 51.6,11.8 C51.5,11.6 50.4,10.7 50.4,10.7 Z" id="Shape" fill="#E5E5E5"></path>
                        <path d="M1.1,4.6 C1.1,4.6 1.7,4 3,4 C3,4 12.6,4.2 12.8,4.4 L22.1,5 L21.9,6 L1.1,4.6 Z" id="Shape" fill="#545454"></path>
                        <g transform="translate(23.000000, 0.000000)" id="Shape">
                            <path d="M1.6,0.9 C1.6,0.9 6.1,0.8 7.2,1.3 C7.2,1.3 9.3,1.7 14.2,6 C14.2,6 14.8,6.6 14.6,6.9 L0.9,6 C0.9,6 0.5,5.8 0.7,5.5 L1.1,1.7 C1,1.7 1.2,0.9 1.6,0.9 Z" fill="#545454"></path>
                            <path d="M1.6,1.4 C1.6,1.4 3.9,1.1 7.2,1.8 C7.2,1.8 8.7,2.4 10.9,4.4 C10.9,4.4 11.3,6.6 10.4,6.2 L2.6,5.9 L1.6,4.8 C1.6,4.8 2.7,2 1.4,2.3 C1.4,2.2 1,1.4 1.6,1.4 Z" fill="#7C7C7C"></path>
                        </g>
                        <path d="M50.6,8.4 C50.6,8.4 49.1,8.3 48.6,8.6 L47.6,9.9 C47.6,9.9 47.9,10.4 48.1,10.4 L50.4,10.3 L50.6,8.4 Z" id="Shape" fill="#D1D1D1"></path>
                        <path d="M51.6,12.5 C51.4,12.7 49.3,12.7 48.3,12.7 C47.5,10.9 45.7,9.6 43.6,9.5 C40.6,9.3 38,11.4 37.8,14.2 L17.6,13.6 C17.4,11.1 15.3,9 12.6,8.8 C9.9,8.6 7.5,10.3 6.8,12.8 L4.6,12.6 C4.2,11.6 3.5,10.5 2.1,10.1 C2.1,10.1 0.9,10.7 1,11 C1,11 1.2,12.3 1.8,13.7 L4.8,14.1 L6.7,14.4 L6.7,14.4 L17.6,14.8 L17.6,14.8 L38,15.7 L38,15.7 L47.7,16.5 L47.7,16.6 L48.2,16.6 C48.7,16.4 48.6,16.1 48.6,16.1 C49.6,15.9 51.3,15 51.3,15 C51.6,14.9 51.4,14.5 51.4,14.5 C52,13.2 51.6,12.5 51.6,12.5 Z" id="Shape" fill="#494949"></path>
                        <g transform="translate(38.000000, 10.000000)">
                            <path d="M0.6,4.6 C0.5,7.2 2.6,9.3 5.2,9.2 C7.6,9.1 9.5,7.2 9.6,4.8 C9.7,2.2 7.6,0.1 5,0.2 C2.6,0.3 0.7,2.2 0.6,4.6 Z" id="Shape" fill="#545454"></path>
                            <circle id="Oval" fill="#E2E2E2" cx="5.2" cy="4.6" r="2"></circle>
                            <path d="M2.2,4.6 C2.2,6.3 3.5,7.6 5.2,7.6 C6.9,7.6 8.2,6.3 8.2,4.6 C8.2,2.9 6.9,1.6 5.2,1.6 C3.5,1.6 2.2,3 2.2,4.6 Z M2.7,4.6 C2.7,3.2 3.8,2.1 5.2,2.1 C6.6,2.1 7.7,3.2 7.7,4.6 C7.7,6 6.6,7.1 5.2,7.1 C3.8,7.1 2.7,6 2.7,4.6 Z" id="Shape" fill="#B2B2B3"></path>
                        </g>
                        <g transform="translate(7.000000, 9.000000)">
                            <path d="M0.5,5.3 C0.4,7.9 2.5,10 5.1,9.9 C7.5,9.8 9.4,7.9 9.5,5.5 C9.6,2.9 7.5,0.8 4.9,0.9 C2.5,1.1 0.5,3 0.5,5.3 Z" id="Shape" fill="#545454"></path>
                            <circle id="Oval" fill="#E2E2E2" cx="5" cy="5.4" r="2"></circle>
                            <path d="M2,5.4 C2,7.1 3.3,8.4 5,8.4 C6.7,8.4 8,7.1 8,5.4 C8,3.7 6.7,2.4 5,2.4 C3.4,2.4 2,3.7 2,5.4 Z M2.5,5.4 C2.5,4 3.6,2.9 5,2.9 C6.4,2.9 7.5,4 7.5,5.4 C7.5,6.8 6.4,7.9 5,7.9 C3.6,7.9 2.5,6.8 2.5,5.4 Z" id="Shape" fill="#B2B2B3"></path>
                        </g>
                        <path d="M6.5,14.5 L17.4,14.9" id="Shape" fill="#545454"></path>
                    </g>
                </g>
            </g>
        </g>
    </g>
</svg>