<?xml version="1.0" encoding="UTF-8"?>
<svg width="50px" height="19px" viewBox="0 0 50 19" version="1.1" xmlns="http://www.w3.org/2000/svg" xmlns:xlink="http://www.w3.org/1999/xlink">
    <!-- Generator: Sketch 47.1 (45422) - http://www.bohemiancoding.com/sketch -->
    <title>van@1.5x</title>
    <desc>Created with Sketch.</desc>
    <defs></defs>
    <g id="01-Design:-Flow-and-UI" stroke="none" stroke-width="1" fill="none" fill-rule="evenodd">
        <g id="01.02-(Low-Severity-DTC,-Low-Battery)-Copy-3" transform="translate(-305.000000, -868.000000)">
            <g id="van" transform="translate(305.000000, 868.000000)">
                <g id="Layer_1">
                    <g id="Group">
                        <path d="M49.6078431,11.6 L49.6078431,11.1 C49.6078431,11.1 49.6078431,10.3 49.5098039,9.9 C49.4117647,9.3 49.3137255,8.8 49.1176471,8.4 C49.1176471,8.4 48.0392157,8.2 47.6470588,9.4 L47.6470588,11.6 L47.6470588,11.6 L47.6470588,14.4 L49.5098039,14.4 C49.5098039,14 49.6078431,11.6 49.6078431,11.6 Z" id="Shape" fill="#D1D1D1"></path>
                        <g transform="translate(0.980392, 0.000000)" id="Shape" fill="#E6E6E6">
                            <path d="M37.8431373,15 L37.8431373,15 L37.8431373,15 C37.8431373,15.1 37.8431373,15.1 37.8431373,15 Z"></path>
                            <path d="M46.8627451,7.5 L42.745098,6.3 C42.5490196,6.3 42.4509804,6.2 42.3529412,6.1 L37.4509804,2 C36.7647059,1.4 35.9803922,0.9 35.0980392,0.6 C34.3137255,0.3 33.4313725,0.2 32.5490196,0.2 L28.9215686,0.2 L28.9215686,0.2 L3.43137255,0.2 C3.03921569,0.2 2.35294118,0.8 2.15686275,1.1 C1.56862745,1.8 0.68627451,3.3 0.490196078,5.4 C0.294117647,6.8 0.294117647,7.1 0.294117647,7.6 C0.0980392157,9.5 0.196078431,11.2 0.196078431,12.1 L0.196078431,12.7 L1.17647059,12.7 C1.2745098,12.7 1.2745098,12.7 1.2745098,12.8 L1.47058824,15.1 L5.29411765,15.2 L5.29411765,15.2 C5.29411765,14 5.78431373,12.9 6.56862745,12.1 C7.35294118,11.3 8.43137255,10.8 9.60784314,10.8 C10.7843137,10.8 11.8627451,11.3 12.6470588,12.1 C13.4313725,12.9 13.9215686,14 13.9215686,15.2 L13.9215686,14.9 L28.8235294,14.9 L28.9215686,14.9 L28.9215686,15 C28.9215686,15.1 28.9215686,15.1 29.0196078,15.1 L37.8431373,15.1 L37.8431373,14.9 L37.6470588,14.9 C37.745098,13.8 38.1372549,12.9 38.8235294,12.2 L38.8235294,12 C39.5098039,11.3 40.8823529,10.9 41.9607843,10.8 C43.8235294,10.7 44.1176471,11.9 44.8039216,12.6 L47.0588235,12.6 L47.0588235,9.4 C47.0588235,8.9 47.4509804,8.4 48.0392157,8.4 L48.2352941,8.4 C47.8431373,8 47.4509804,7.7 46.8627451,7.5 Z M41.1764706,6.7 C41.0784314,6.9 40.9803922,7 40.7843137,7 L38.9215686,7 L38.9215686,7 L30.6862745,7 C30.3921569,7 30.0980392,6.8 30,6.6 L30.1960784,6.6 L30.1960784,1.3 C30.2941176,1.2 30.3921569,1.2 30.5882353,1.2 L32.4509804,1.2 C34.0196078,1.2 35.5882353,1.8 36.7647059,2.8 L40.9803922,6.4 C41.1764706,6.3 41.2745098,6.5 41.1764706,6.7 Z"></path>
                        </g>
                        <path d="M48.9215686,12.5 L46.5686275,12.5 C45.7843137,11.3 44.3137255,10.4 42.745098,10.4 C41.0784314,10.4 39.7058824,11.3 38.8235294,12.5 L14.8039216,12.4 C14.0196078,11.2 12.5490196,10.3 10.9803922,10.3 C9.41176471,10.3 7.94117647,11.1 7.15686275,12.4 L1.76470588,12.4 L1.76470588,11.6 L0.882352941,11.6 C0.784313725,11.6 0.784313725,11.8 0.784313725,12.1 L0.784313725,14.6 C0.784313725,14.8 0.882352941,15 0.882352941,15.1 L1.76470588,15.5 L1.76470588,15.4 L47.4509804,15.4 L47.4509804,15.4 L48.1372549,15.4 C49.0196078,15.4 49.7058824,14.8 49.8039216,14 L49.8039216,13.7 L49.8039216,13.4 C49.7058824,12.9 49.3137255,12.5 48.9215686,12.5 Z" id="Shape" fill="#545454"></path>
                        <path d="M1.66666667,5.9 L29.9019608,5.9 L29.9019608,6.9 L1.47058824,6.9 C1.56862745,6.6 1.66666667,6.3 1.66666667,5.9 Z" id="Shape" fill="#B7B7B7"></path>
                        <path d="M42.4509804,6.3 L39.1176471,3.5 L39.1176471,3.5 L38.8235294,3.3 L38.0392157,2.6 C37.254902,2 36.2745098,1.5 35.2941176,1.2 C34.7058824,1 34.0196078,0.9 33.4313725,0.9 L31.2745098,0.9 C30.9803922,0.9 30.7843137,1.1 30.7843137,1.4 L30.7843137,6.4 C30.7843137,6.7 31.0784314,7 31.372549,7 L40.4901961,7 L42.1568627,7 C42.3529412,7 42.4509804,6.9 42.4509804,6.8 C42.5490196,6.6 42.5490196,6.4 42.4509804,6.3 Z" id="Shape" fill="#7C7C7C"></path>
                        <path d="M10.8823529,11.5 C9.01960784,11.5 7.45098039,13.1 7.45098039,15 C7.45098039,16.9 9.01960784,18.5 10.8823529,18.5 C12.745098,18.5 14.3137255,16.9 14.3137255,15 C14.3137255,13 12.745098,11.5 10.8823529,11.5 Z" id="Shape" fill="#7C7C7C"></path>
                        <path d="M12.8431373,15 C12.8431373,16.1 11.9607843,17 10.8823529,17 C10.6862745,17 10.5882353,17 10.3921569,16.9 C9.50980392,16.7 8.92156863,15.9 8.92156863,15 C8.92156863,14.1 9.50980392,13.3 10.3921569,13.1 C10.5882353,13.1 10.6862745,13 10.8823529,13 C11.9607843,13 12.8431373,13.9 12.8431373,15 Z" id="Shape" fill="#E6E6E6"></path>
                        <g transform="translate(39.215686, 11.000000)" id="Shape">
                            <path d="M3.52941176,0.5 C1.66666667,0.5 0.0980392157,2.1 0.0980392157,4 C0.0980392157,5.9 1.66666667,7.5 3.52941176,7.5 C5.39215686,7.5 6.96078431,5.9 6.96078431,4 C6.96078431,2 5.49019608,0.5 3.52941176,0.5 Z" fill="#7C7C7C"></path>
                            <path d="M5.49019608,4 C5.49019608,5.1 4.60784314,6 3.52941176,6 C3.33333333,6 3.23529412,6 3.03921569,5.9 C2.15686275,5.7 1.56862745,4.9 1.56862745,4 C1.56862745,3.1 2.15686275,2.3 3.03921569,2.1 C3.23529412,2.1 3.33333333,2 3.52941176,2 C4.60784314,2 5.49019608,2.9 5.49019608,4 Z" fill="#E6E6E6"></path>
                        </g>
                    </g>
                </g>
            </g>
        </g>
    </g>
</svg>