<svg width="125" height="105" xmlns="http://www.w3.org/2000/svg" xmlns:xlink="http://www.w3.org/1999/xlink">
 <g>
  <defs>
   <path id="svg_4" d="m18.8,4.8l-4,0l0,-2c0,-1.11 -0.89,-2 -2,-2l-4,0c-1.11,0 -2,0.89 -2,2l0,2l-4,0c-1.11,0 -1.99,0.89 -1.99,2l-0.01,11c0,1.11 0.89,2 2,2l16,0c1.11,0 2,-0.89 2,-2l0,-11c0,-1.11 -0.89,-2 -2,-2zm-6,0l-4,0l0,-2l4,0l0,2z"/>
  </defs>
  <g id="svg_12">
   <g fill="none" fill-rule="evenodd" id="svg_6" transform="matrix(4.340277446640869,0,0,4.340277446640869,0,0) ">
    <g id="svg_7">
     <g opacity="0.6" id="svg_8">
      <path d="m2.362,0l24,0l0,24l-24,0l0,-24z" id="svg_9"/>
      <use fill-rule="nonzero" stroke="#4A4A4A" xlink:href="#svg_4" y="1.2" x="3.562" id="svg_10"/>
     </g>
    </g>
    <path fill="#363636" fill-opacity="0.6" d="m0.574,3.147l3.276,2.294l-0.573,0.82l-3.277,-2.295l0.574,-0.819zm24.999,18l3.277,2.294l-0.573,0.82l-3.277,-2.295l0.573,-0.819zm-17.993,-13.415l14.744,10.324l-0.573,0.82l-14.745,-10.326l0.574,-0.818z" id="svg_11"/>
   </g>
  </g>
 </g>
</svg>