<svg width="25" height="24" xmlns="http://www.w3.org/2000/svg" xmlns:xlink="http://www.w3.org/1999/xlink">
 <defs>
  <path d="m18.8,4.8l-4,0l0,-2c0,-1.11 -0.89,-2 -2,-2l-4,0c-1.11,0 -2,0.89 -2,2l0,2l-4,0c-1.11,0 -1.99,0.89 -1.99,2l-0.01,11c0,1.11 0.89,2 2,2l16,0c1.11,0 2,-0.89 2,-2l0,-11c0,-1.11 -0.89,-2 -2,-2zm-6,0l-4,0l0,-2l4,0l0,2z" id="a"/>
 </defs>
 
 <g>
  <g id="svg_1" fill-rule="evenodd" fill="none">
   <g id="svg_2" opacity="0.6">
    <path id="svg_3" d="m0,0l24,0l0,24l-24,0l0,-24z"/>
    <use id="svg_4" x="1.2" y="1.2" xlink:href="#a" stroke="#4A4A4A" fill-rule="nonzero"/>
   </g>
  </g>
 </g>
</svg>