<svg xmlns="http://www.w3.org/2000/svg" width="80" height="80" viewBox="0 0 80 80">
    <g fill="none" fill-rule="evenodd" opacity=".6">
        <path d="M12 12h56v56H12z"/>
        <path fill="#363636" fill-rule="nonzero" d="M39.533 37.433c-5.296-1.376-7-2.8-7-5.016 0-2.544 2.357-4.317 6.3-4.317 4.154 0 5.694 1.983 5.834 4.9h5.156c-.163-4.013-2.613-7.7-7.49-8.89V19h-7v5.04c-4.526.98-8.166 3.92-8.166 8.423 0 5.39 4.456 8.074 10.966 9.637 5.834 1.4 7 3.453 7 5.623 0 1.61-1.143 4.177-6.3 4.177-4.806 0-6.696-2.147-6.953-4.9h-5.133c.28 5.11 4.106 7.98 8.586 8.937V61h7v-5.017c4.55-.863 8.167-3.5 8.167-8.283 0-6.627-5.67-8.89-10.967-10.267z"/>
        <path fill="#363636" fill-rule="nonzero" d="M40 80C17.909 80 0 62.091 0 40S17.909 0 40 0s40 17.909 40 40-17.909 40-40 40zm0-3.636c20.083 0 36.364-16.28 36.364-36.364 0-20.083-16.28-36.364-36.364-36.364C19.917 3.636 3.636 19.916 3.636 40c0 20.083 16.28 36.364 36.364 36.364z"/>
    </g>
</svg>
