<svg xmlns="http://www.w3.org/2000/svg" width="27" height="23" viewBox="0 0 27 23">
    <path fill-rule="evenodd" d="M1.35 5.412c0-.748.604-1.353 1.35-1.353h21.6c.746 0 1.35.605 1.35 1.353H1.35zm22.275 9.47H21.6v2.03h-1.35v-2.03h-2.025V13.53h2.025V11.5h1.35v2.03h2.025v1.352zm-20.25 0h5.4V13.53h-5.4v1.353zM4.05 2.706H8.1V1.353H4.05v1.353zm14.85 0h4.05V1.353H18.9v1.353zm5.4 0V1.353C24.3.606 23.696 0 22.95 0H18.9c-.746 0-1.35.606-1.35 1.353v1.353h-8.1V1.353C9.45.606 8.846 0 8.1 0H4.05C3.304 0 2.7.606 2.7 1.353v1.353A2.706 2.706 0 0 0 0 5.412v14.882A2.706 2.706 0 0 0 2.7 23h21.6c1.489 0 2.7-1.214 2.7-2.706V5.412a2.706 2.706 0 0 0-2.7-2.706z"/>
</svg>
