<svg xmlns="http://www.w3.org/2000/svg" width="26" height="25" viewBox="0 0 26 25">
    <path fill-rule="evenodd" d="M22.996 1.578C22.706.656 21.898 0 20.944 0H5.056c-.954 0-1.748.656-2.052 1.578L0 10.938v12.5C0 24.297.65 25 1.444 25H2.89c.794 0 1.444-.703 1.444-1.563v-1.562h17.334v1.563c0 .859.65 1.562 1.444 1.562h1.445C25.35 25 26 24.297 26 23.437v-12.5l-3.004-9.359zm-17.94 15.61c-1.2 0-2.167-1.047-2.167-2.344S3.857 12.5 5.056 12.5c1.198 0 2.166 1.047 2.166 2.344s-.968 2.344-2.166 2.344zm15.888 0c-1.198 0-2.166-1.047-2.166-2.344s.968-2.344 2.166-2.344c1.2 0 2.167 1.047 2.167 2.344s-.968 2.344-2.167 2.344zM2.89 9.375l2.167-7.031h15.888l2.167 7.031H2.89z"/>
</svg>
