<svg xmlns="http://www.w3.org/2000/svg" width="30" height="30" viewBox="0 0 11 11">
    <path fill-rule="evenodd" d="M9.647 2.505l.006-.006L7.539.296l-.603.628 1.2 1.249a1.475 1.475 0 0 0-.916 1.38c0 .817.637 1.48 1.421 1.48.205 0 .392-.047.568-.124v4.269a.582.582 0 0 1-.568.592.582.582 0 0 1-.568-.592V6.513c0-.651-.512-1.184-1.137-1.184h-.568V1.184C6.368.533 5.857 0 5.232 0h-3.41C1.197 0 .686.533.686 1.184v9.474h5.682v-4.44h.852v2.96c0 .817.637 1.48 1.421 1.48s1.42-.663 1.42-1.48V3.553c0-.409-.158-.782-.414-1.048zm-4.415 1.64h-3.41v-2.96h3.41v2.96zm3.41 0a.582.582 0 0 1-.57-.592c0-.326.257-.592.57-.592.312 0 .567.266.567.592a.582.582 0 0 1-.568.592z"/>
</svg>
