<svg xmlns="http://www.w3.org/2000/svg" width="18" height="23" viewBox="0 0 18 23">
    <g fill="none" fill-rule="evenodd" transform="translate(-3)">
        <ellipse cx="12.065" cy="17.688" stroke="#4A4A4A" stroke-width="2" rx="7.762" ry="4.006"/>
        <path fill="#4A4A4A" stroke="#FFF" d="M12.2 9.107c.6 0 1.113-.213 1.536-.638.423-.426.634-.941.634-1.546 0-.604-.211-1.119-.634-1.545A2.084 2.084 0 0 0 12.2 4.74c-.6 0-1.113.213-1.536.638-.423.426-.634.941-.634 1.545 0 .605.211 1.12.634 1.546.423.425.935.638 1.536.638zm0-8.323c1.693 0 3.132.598 4.32 1.793C17.705 3.77 18.3 5.22 18.3 6.923c0 .852-.212 1.827-.635 2.926a18.081 18.081 0 0 1-1.535 3.09c-.6.961-1.194 1.861-1.78 2.699a32.243 32.243 0 0 1-1.495 1.998l-.654.7-.655-.762c-.273-.316-.765-.947-1.474-1.895a31.768 31.768 0 0 1-1.863-2.76A20.105 20.105 0 0 1 6.756 9.89c-.436-1.126-.655-2.115-.655-2.967 0-1.703.594-3.152 1.78-4.346C9.07 1.382 10.51.784 12.202.784z"/>
        <path d="M0 0h24v24H0z"/>
    </g>
</svg>
