<svg xmlns="http://www.w3.org/2000/svg" width="20" height="24" viewBox="0 0 20 24">
    <g fill="none" fill-rule="evenodd">
        <path fill="#FFF" fill-rule="nonzero" d="M5.2 2.4C6.85.945 8.35.364 10 .364c1.95 0 3.45.581 4.65 1.89 1.35 1.6 2.1 2.91 2.1 4.655 0 .873-.15 1.891-.75 3.2a19.322 19.322 0 0 1-1.8 3.491c-.75 1.164-1.5 2.182-2.25 3.2-.45.727-.9 1.31-1.35 1.745l-.6.728-.15-.146c-.3-.436-.9-1.163-1.8-2.182a69.07 69.07 0 0 1-2.25-3.054L4 10.4c-.6-1.455-.9-2.473-.9-3.345.15-2.037.75-3.491 2.1-4.655z"/>
        <path fill="#FFF" stroke="#FFF" stroke-width="1.1" d="M10 23.2c-4.95 0-9-2.036-9-4.655 0-1.6 1.5-3.054 3.9-3.927l.6 1.31c-1.8.581-3 1.6-3 2.617 0 1.6 3.15 3.346 7.5 3.346s7.5-1.746 7.5-3.346c0-1.018-1.2-2.036-3.15-2.618l.45-1.309c2.55.873 4.05 2.327 4.05 3.927C19 21.164 14.95 23.2 10 23.2z"/>
        <path fill="#00BAF2" fill-rule="nonzero" d="M7.6 9.382c.6.436 1.35.873 2.4.873 1.05 0 1.8-.437 2.55-.873.6-.582.9-1.455.9-2.473 0-1.018-.45-1.745-.9-2.473-.6-.581-1.5-.872-2.55-.872-1.05 0-1.8.436-2.55.872-.6.582-.9 1.455-.9 2.473 0 1.018.45 1.746.9 2.327l.15.146z"/>
    </g>
</svg>
