<svg xmlns="http://www.w3.org/2000/svg" xmlns:xlink="http://www.w3.org/1999/xlink" width="134" height="132" viewBox="0 0 134 132">
    <defs>
        <path id="a" d="M0 .452V27.53h23.575V.452H0z"/>
        <path id="c" d="M23.923 27.531V.451H.348v27.08h23.575z"/>
    </defs>
    <g fill="none" fill-rule="evenodd" opacity=".5">
        <path fill="#9B9B9B" d="M79.18 64.966a4.584 4.584 0 1 1 0-9.167 4.584 4.584 0 1 1 0 9.167m-3.488 15.209c-.853 5.043-5.59 8.435-10.584 7.573-4.993-.86-8.35-5.646-7.5-10.692.012-.06.037-.113.048-.174h17.976c.202 1.06.251 2.165.06 3.293M54.11 64.965a4.585 4.585 0 0 1-4.586-4.583 4.585 4.585 0 0 1 4.586-4.583 4.584 4.584 0 1 1 0 9.167m12.536-39.417c-22.29 0-40.357 18.058-40.357 40.333s18.067 40.334 40.357 40.334c22.288 0 40.357-18.059 40.357-40.334 0-22.275-18.069-40.333-40.357-40.333"/>
        <path fill="#9B9B9B" d="M26.638 44.763a45.545 45.545 0 0 1 19.19-19.024l-12.817-3.432-13.353-3.577 3.58 13.345 3.4 12.688zM66.645 20.65c3.744 0 7.378.466 10.86 1.326l-5.784-10.012L64.811 0l-6.912 11.964-6.56 11.354a45.077 45.077 0 0 1 15.306-2.668M105.57 42.841l3.15-11.75 3.579-13.344-13.353 3.575-13.244 3.547a45.54 45.54 0 0 1 19.868 17.972"/>
        <g transform="translate(0 52.236)">
            <mask id="b" fill="#fff">
                <use xlink:href="#a"/>
            </mask>
            <path fill="#9B9B9B" d="M21.385 13.646c0-4.589.693-9.018 1.97-13.194L11.971 7.02-.001 13.927l11.972 6.908 11.604 6.695a45.014 45.014 0 0 1-2.19-13.884" mask="url(#b)"/>
        </g>
        <path fill="#9B9B9B" d="M25.696 85.125L22.251 97.97l-3.577 13.345 13.353-3.575 11.395-3.053a45.54 45.54 0 0 1-17.726-19.563M106.37 87.535a45.54 45.54 0 0 1-19.712 18.903l-.006.006 13.353 3.577 13.352 3.575-3.577-13.345-3.41-12.716z"/>
        <g transform="translate(109.365 52.236)">
            <mask id="d" fill="#fff">
                <use xlink:href="#c"/>
            </mask>
            <path fill="#9B9B9B" d="M11.952 7.02L.57.45a45.06 45.06 0 0 1 1.968 13.195c0 4.844-.774 9.508-2.19 13.886l11.604-6.695 11.971-6.908L11.952 7.02z" mask="url(#d)"/>
        </g>
        <path fill="#9B9B9B" d="M66.645 111.116c-5.37 0-10.522-.945-15.304-2.668l6.558 11.352 6.912 11.964 6.91-11.964 5.784-10.01a45.239 45.239 0 0 1-10.86 1.326"/>
    </g>
</svg>
