<svg xmlns="http://www.w3.org/2000/svg" width="42" height="48" viewBox="0 0 42 48">
    <g fill="none" fill-rule="nonzero">
        <path d="M-7-4h56v56H-7z"/>
        <path fill="#363636" d="M37.333 5.333H4.667v21.412c0 8.772 7.292 15.922 16.333 15.922 9.041 0 16.333-7.15 16.333-15.922V5.333zM42 26.745c0 11.37-9.402 20.588-21 20.588S0 38.116 0 26.745V.667h42v26.078zM20.864 11.167c2.729 0 4.926 2.215 4.926 4.942a4.93 4.93 0 0 1-4.926 4.942 4.943 4.943 0 0 1 0-9.884zM9.334 30.109c0-3.842 7.687-5.764 11.53-5.764 3.844 0 11.528 1.922 11.528 5.764v2.058H9.333v-2.058z"/>
    </g>
</svg>
