<?xml version="1.0" encoding="UTF-8"?>
<svg width="50px" height="25px" viewBox="0 0 50 25" version="1.1" xmlns="http://www.w3.org/2000/svg" xmlns:xlink="http://www.w3.org/1999/xlink">
    <!-- Generator: Sketch 47.1 (45422) - http://www.bohemiancoding.com/sketch -->
    <title>BigTruck_Offline@1.5x</title>
    <desc>Created with Sketch.</desc>
    <defs></defs>
    <g id="01-Design:-Flow-and-UI" stroke="none" stroke-width="1" fill="none" fill-rule="evenodd">
        <g id="01.02-(Low-Severity-DTC,-Low-Battery)-Copy-3" transform="translate(-235.000000, -963.000000)">
            <g id="BigTruck_Offline" transform="translate(235.000000, 963.000000)">
                <g id="Layer_1">
                    <g id="Group">
                        <path d="M48.7037037,18.2407407 C48.8888889,16.8518519 47.962963,15.9259259 47.962963,15.9259259 C47.962963,15.9259259 43.2407407,12.5 41.3888889,11.0185185 C39.6296296,9.53703704 39.0740741,8.98148148 37.8703704,8.88888889 L33.0555556,8.88888889 L33.0555556,19.6296296 L34.2592593,20.8333333 L39.8148148,20.9259259 C40,17.5925926 42.962963,17.6851852 42.962963,17.6851852 C46.2962963,17.5925926 46.2037037,20.9259259 46.2037037,20.9259259 C48.5185185,21.0185185 48.8888889,20.462963 48.8888889,20.462963 L48.7037037,18.2407407 Z" id="Shape" fill="#E5E5E5"></path>
                        <g transform="translate(0.925926, 3.703704)" id="Shape" fill="#D1D1D1">
                            <polygon points="32.2222222 15.9259259 32.2222222 0.277777778 16.2037037 0.277777778"></polygon>
                            <polygon points="13.6111111 0.277777778 0.740740741 0.277777778 0.740740741 16.0185185 29.6296296 16.0185185"></polygon>
                        </g>
                        <path d="M47.962963,15.9259259 C47.962963,15.9259259 46.6666667,16.2037037 45.9259259,16.1111111 C45.9259259,16.1111111 46.6666667,17.3148148 46.6666667,17.6851852 C46.6666667,17.6851852 48.5185185,17.8703704 48.7037037,17.5 C48.7037037,17.5 48.6111111,16.3888889 47.962963,15.9259259 Z" id="Shape" fill="#D1D1D1"></path>
                        <path d="M43.3333333,13.9814815 L43.3333333,13.9814815 C43.3333333,13.8888889 43.2407407,13.8888889 43.3333333,13.9814815 C43.2407407,13.8888889 43.2407407,13.8888889 43.3333333,13.9814815 C42.8703704,13.5185185 39.2592593,10.7407407 39.2592593,10.7407407 C38.7962963,10.3703704 38.2407407,10.2777778 37.962963,10.1851852 L34.2592593,10.1851852 L34.2592593,14.8148148 L34.537037,14.8148148 L37.1296296,14.8148148 L42.962963,14.8148148 L42.962963,14.8148148 C43.2407407,14.8148148 43.4259259,14.537037 43.4259259,14.2592593 C43.4259259,14.1666667 43.4259259,13.9814815 43.3333333,13.9814815 Z M41.7592593,14.3518519 L41.7592593,14.3518519 L35.6481481,14.3518519 L35.2777778,14.1666667 L35.2777778,12.962963 C35.2777778,12.3148148 34.9074074,12.3148148 34.7222222,12.4074074 L34.7222222,10.6481481 L37.6851852,10.6481481 C37.962963,10.6481481 38.3333333,10.7407407 38.7037037,11.0185185 C38.7037037,11.0185185 41.5740741,13.2407407 41.9444444,13.6111111 L41.9444444,13.6111111 L41.9444444,13.6111111 L41.9444444,13.6111111 C42.037037,13.7037037 42.037037,13.7962963 42.037037,13.8888889 C42.1296296,14.0740741 41.9444444,14.2592593 41.7592593,14.3518519 Z" id="Shape" fill="#494949"></path>
                        <g transform="translate(0.000000, 16.666667)" id="Shape" fill="#494949">
                            <path d="M49.1666667,1.94444444 L48.7037037,1.85185185 C48.7037037,2.12962963 48.2407407,2.12962963 48.2407407,2.12962963 L46.8518519,2.40740741 C46.2037037,1.2037037 45,0.37037037 43.5185185,0.277777778 C41.7592593,0.185185185 40.1851852,1.2037037 39.537037,2.68518519 L32.962963,2.68518519 L34.7222222,4.44444444 L39.1666667,4.44444444 L39.1666667,4.72222222 L47.5,4.72222222 L47.5,4.53703704 L47.962963,4.53703704 C48.9814815,4.53703704 49.0740741,3.88888889 49.0740741,3.88888889 C48.7962963,3.33333333 49.3518519,2.87037037 49.3518519,2.87037037 C49.4444444,2.22222222 49.1666667,1.94444444 49.1666667,1.94444444 Z"></path>
                            <path d="M32.037037,4.53703704 L30.2777778,2.77777778 L14.537037,2.87037037 C13.9814815,1.38888889 12.5925926,0.277777778 10.9259259,0.185185185 C9.07407407,0.0925925926 7.5,1.2037037 6.85185185,2.87037037 L1.57407407,2.87037037 L1.57407407,0.833333333 L0.648148148,0.833333333 L0.648148148,4.44444444 L6.48148148,4.44444444 L6.48148148,4.62962963 L14.8148148,4.62962963 L14.8148148,4.44444444 L32.037037,4.53703704 Z"></path>
                        </g>
                        <circle id="Oval" fill="#494949" cx="10.6481481" cy="21.0185185" r="2.03703704"></circle>
                        <g transform="translate(6.481481, 17.592593)">
                            <path d="M0.925925926,3.33333333 C0.833333333,5.18518519 2.40740741,6.75925926 4.25925926,6.66666667 C5.92592593,6.57407407 7.31481481,5.18518519 7.40740741,3.51851852 C7.5,1.66666667 5.92592593,0.0925925926 4.07407407,0.185185185 C2.40740741,0.277777778 1.01851852,1.66666667 0.925925926,3.33333333 Z" id="Shape" fill="#545454"></path>
                            <circle id="Oval" fill="#E2E2E2" cx="4.16666667" cy="3.42592593" r="1.38888889"></circle>
                            <path d="M2.03703704,3.42592593 C2.03703704,4.62962963 3.05555556,5.64814815 4.25925926,5.64814815 C5.46296296,5.64814815 6.48148148,4.62962963 6.48148148,3.42592593 C6.48148148,2.22222222 5.46296296,1.2037037 4.25925926,1.2037037 C2.96296296,1.2962963 2.03703704,2.22222222 2.03703704,3.42592593 Z M2.40740741,3.42592593 C2.40740741,2.40740741 3.24074074,1.57407407 4.25925926,1.57407407 C5.27777778,1.57407407 6.11111111,2.40740741 6.11111111,3.42592593 C6.11111111,4.44444444 5.27777778,5.27777778 4.25925926,5.27777778 C3.14814815,5.27777778 2.40740741,4.44444444 2.40740741,3.42592593 Z" id="Shape" fill="#B2B2B3"></path>
                        </g>
                        <g transform="translate(39.814815, 17.592593)">
                            <path d="M0.185185185,3.33333333 C0.0925925926,5.18518519 1.66666667,6.75925926 3.51851852,6.66666667 C5.18518519,6.57407407 6.57407407,5.18518519 6.66666667,3.51851852 C6.75925926,1.66666667 5.18518519,0.0925925926 3.33333333,0.185185185 C1.66666667,0.277777778 0.277777778,1.66666667 0.185185185,3.33333333 Z" id="Shape" fill="#545454"></path>
                            <circle id="Oval" fill="#E2E2E2" cx="3.42592593" cy="3.42592593" r="1.38888889"></circle>
                            <path d="M1.2962963,3.42592593 C1.2962963,4.62962963 2.31481481,5.64814815 3.51851852,5.64814815 C4.72222222,5.64814815 5.74074074,4.62962963 5.74074074,3.42592593 C5.74074074,2.22222222 4.72222222,1.2037037 3.51851852,1.2037037 C2.22222222,1.2962963 1.2962963,2.22222222 1.2962963,3.42592593 Z M1.66666667,3.42592593 C1.66666667,2.40740741 2.5,1.57407407 3.51851852,1.57407407 C4.53703704,1.57407407 5.37037037,2.40740741 5.37037037,3.42592593 C5.37037037,4.44444444 4.53703704,5.27777778 3.51851852,5.27777778 C2.40740741,5.27777778 1.66666667,4.44444444 1.66666667,3.42592593 Z" id="Shape" fill="#B2B2B3"></path>
                        </g>
                        <path d="M42.5925926,14.2592593 C42.5925926,14.1666667 42.5,13.9814815 42.5,13.8888889 L42.5,13.8888889 L42.5,13.8888889 L42.5,13.8888889 C42.1296296,13.4259259 38.7962963,10.6481481 38.7962963,10.6481481 C38.4259259,10.2777778 37.8703704,10.1851852 37.5925926,10.0925926 L34.2592593,10.0925926 L34.2592593,14.7222222 L42.1296296,14.7222222 L42.1296296,14.7222222 C42.4074074,14.7222222 42.5925926,14.537037 42.5925926,14.2592593 Z" id="Shape" fill="#7C7C7C"></path>
                        <rect id="Rectangle-path" fill="#D1D1D1" transform="translate(22.167796, 12.520963) rotate(-45.469959) translate(-22.167796, -12.520963) " x="21.2418481" y="-3.68313044" width="1.85189639" height="32.4081868"></rect>
                    </g>
                </g>
            </g>
        </g>
    </g>
</svg>