<?xml version="1.0" encoding="UTF-8"?>
<svg width="53px" height="20px" viewBox="0 0 53 20" version="1.1" xmlns="http://www.w3.org/2000/svg" xmlns:xlink="http://www.w3.org/1999/xlink">
    <!-- Generator: Sketch 47.1 (45422) - http://www.bohemiancoding.com/sketch -->
    <title>Convertable_Offline@1.5x</title>
    <desc>Created with Sketch.</desc>
    <defs></defs>
    <g id="01-Design:-Flow-and-UI" stroke="none" stroke-width="1" fill="none" fill-rule="evenodd">
        <g id="01.02-(Low-Severity-DTC,-Low-Battery)-Copy-3" transform="translate(-91.000000, -968.000000)">
            <g id="Convertable_Offline" transform="translate(90.500000, 968.000000)">
                <g id="Layer_1">
                    <g id="Group">
                        <polygon id="Shape" fill="#58595B" points="29.2 7.2 25.3 3.2 25.8 3.2 30.3 7.2"></polygon>
                        <polygon id="Shape" fill="#D1D1D1" points="25.9 3.2 30.9 7.1 29.6 7.2"></polygon>
                        <path d="M27.2,7.6 C27.2,7.7 27.4,7.8 27.5,7.7 L27.6,7.7 C27.7,7.6 27.7,7.5 27.7,7.4 L27.2,6 C27.2,5.9 27,5.8 26.9,5.9 L26.8,5.9 C26.7,6 26.7,6.1 26.7,6.2 L27.2,7.6 Z" id="Shape" fill="#58595B"></path>
                        <g transform="translate(0.000000, 5.000000)" id="Shape" fill="#E5E5E5">
                            <path d="M23.2,1.7 L18.3,1.8 L15.3,0 C15.3,0 5.9,0 1.3,4.9 C1.3,4.9 -0.1,6.8 2.4,8.4 C2.4,8.4 9.4,11 15.3,11 L15.7,10.3 L31.5,10.3 L23.2,1.7 Z"></path>
                            <path d="M52.4,4.8 C52.4,4.8 48.5,1.4 40.1,1.4 L26,1.6 L34.4,10.2 L38.6,10.2 L38.8,10.9 L47.3,9.2 C47.3,9.2 55.1,9.8 52.4,4.8 Z"></path>
                        </g>
                        <g transform="translate(0.000000, 10.000000)" id="Shape" fill="#B7B7B7" opacity="0.3">
                            <g transform="translate(29.000000, 0.000000)">
                                <path d="M23.7,0.2 L23.7,0.2 L0.4,0.2 L3.3,3.2 L23.1,3.2 C23.9,2.5 24.3,1.6 23.7,0.2 Z"></path>
                            </g>
                            <g>
                                <path d="M26.6,0.2 L1.6,0.2 C1.2,0.1 1.1,0.3 1.1,0.3 C1.1,0.3 0.3,1.8 2.3,3.2 L29.5,3.2 L26.6,0.2 Z"></path>
                            </g>
                        </g>
                        <g transform="translate(2.000000, 10.000000)" id="Shape" fill="#494949">
                            <path d="M26.6,3.1 L13.8,3.1 C13.7,1.9 12.7,1 11.4,1 L7,1 C5.4,1 5,1.9 4.9,3.1 L0.3,3.1 C0.4,3.2 0.5,3.2 0.6,3.3 C0.6,3.3 7.4,5.8 13.3,5.8 L13.9,5.2 L28.7,5.2 L26.6,3.1 Z"></path>
                            <path d="M47,3.1 C47,1.9 46,0.9 44.6,0.9 L41,0.9 C39.4,0.9 38.1,1.9 38,3.1 L30.3,3.1 L32.4,5.2 L36.6,5.2 L36.8,5.9 L39.9,5.3 L46,4.2 L46.1,4.2 L46.9,4.2 L46.9,4.2 C48,4.1 49.5,3.9 50.2,3.2 L47,3.2 L47,3.1 Z"></path>
                        </g>
                        <path d="M19.1,7 L19,6.9 L19.3,5.2 C19.3,5.2 20.2,4 22,6.9 L19.1,7 Z" id="Shape" fill="#58595B"></path>
                        <path d="M3,10.7 L1,11.2 C0.9,10.7 1,10.3 1.1,10.2 L3,10.2 L3,10.7 Z" id="Shape" fill="#B7B7B7"></path>
                        <path d="M51.4,9.5 C51.2,9.9 50.4,9.8 49.6,9.3 C48.8,8.8 48.3,8.1 48.4,7.7 C49.7,8.2 50.7,8.8 51.4,9.2 L51.4,9.5 Z" id="Shape" fill="#B7B7B7"></path>
                        <g opacity="0.7" transform="translate(36.000000, 7.000000)" id="Shape" fill="#FFFFFF">
                            <path d="M12.2,1.3 C12.2,1.3 9,0.2 5,0.2 L0.6,0.3 C0.7,0.3 7.5,0.4 12.2,1.3 Z"></path>
                        </g>
                        <rect id="Rectangle-path" fill="#E6E6E6" transform="translate(25.294860, 10.189870) rotate(-44.404414) translate(-25.294860, -10.189870) " x="24.2948863" y="-2.30980156" width="1.99994745" height="24.9993431"></rect>
                        <g transform="translate(40.000000, 11.000000)" id="Shape">
                            <path d="M0.4,4 C0.4,6.2 2.2,8 4.4,8 C6.6,8 8.4,6.2 8.4,4 C8.4,1.8 6.6,0 4.4,0 C2.2,0 0.4,1.8 0.4,4" fill="#545454"></path>
                            <path d="M1.4,4 C1.4,5.7 2.7,7 4.4,7 C6.1,7 7.4,5.7 7.4,4 C7.4,2.3 6.1,1 4.4,1 C2.8,1 1.4,2.4 1.4,4" fill="#E5E5E5"></path>
                            <path d="M1.9,4 C1.9,5.4 3,6.5 4.4,6.5 C5.8,6.5 6.9,5.4 6.9,4 C6.9,2.6 5.8,1.5 4.4,1.5 C3,1.5 1.9,2.7 1.9,4" fill="#545454"></path>
                            <path d="M2.9,4 C2.9,4.8 3.6,5.5 4.4,5.5 C5.2,5.5 5.9,4.8 5.9,4 C5.9,3.2 5.2,2.5 4.4,2.5 C3.6,2.5 2.9,3.2 2.9,4" fill="#E5E5E5"></path>
                        </g>
                        <g transform="translate(7.000000, 11.000000)" id="Shape">
                            <path d="M0.5,4 C0.5,6.2 2.3,8 4.5,8 C6.7,8 8.5,6.2 8.5,4 C8.5,1.8 6.7,0 4.5,0 C2.3,0 0.5,1.8 0.5,4" fill="#545454"></path>
                            <path d="M1.5,4 C1.5,5.7 2.8,7 4.5,7 C6.2,7 7.5,5.7 7.5,4 C7.5,2.3 6.2,1 4.5,1 C2.9,1 1.5,2.4 1.5,4" fill="#E5E5E5"></path>
                            <path d="M2,4 C2,5.4 3.1,6.5 4.5,6.5 C5.9,6.5 7,5.4 7,4 C7,2.6 5.9,1.5 4.5,1.5 C3.2,1.5 2,2.7 2,4" fill="#545454"></path>
                            <path d="M3,4 C3,4.8 3.7,5.5 4.5,5.5 C5.3,5.5 6,4.8 6,4 C6,3.2 5.3,2.5 4.5,2.5 C3.7,2.5 3,3.2 3,4" fill="#E5E5E5"></path>
                        </g>
                    </g>
                </g>
            </g>
        </g>
    </g>
</svg>