<?xml version="1.0" encoding="UTF-8"?>
<svg width="52px" height="24px" viewBox="0 0 52 24" version="1.1" xmlns="http://www.w3.org/2000/svg" xmlns:xlink="http://www.w3.org/1999/xlink">
    <!-- Generator: Sketch 47.1 (45422) - http://www.bohemiancoding.com/sketch -->
    <title>Hatchback_offline@1.5x</title>
    <desc>Created with Sketch.</desc>
    <defs></defs>
    <g id="01-Design:-Flow-and-UI" stroke="none" stroke-width="1" fill="none" fill-rule="evenodd">
        <g id="01.02-(Low-Severity-DTC,-Low-Battery)-Copy-3" transform="translate(-304.000000, -926.000000)">
            <g id="Hatchback_offline" transform="translate(304.000000, 926.000000)">
                <g id="Layer_1">
                    <g id="Group">
                        <g transform="translate(0.000000, 4.000000)" id="Shape" fill="#E5E5E5">
                            <path d="M31.5,16.3 L15.7,0.5 C13.9,0.6 12,0.8 10.5,0.9 C10.5,0.9 6.5,2.1 6.2,2.1 L6.2,6.5 L3.9,6.4 C3.9,6.4 2.8,7.3 2.3,7.7 C1.8,8 0.8,9.3 0.8,9.3 L1,10.1 C0.8,10.2 0.4,11.7 0.4,11.7 L3.8,12.6 C6.3,10.1 8.8,10.6 8.8,10.6 C13.2,11 12.9,16.4 12.9,16.4 L31.5,16.4 L31.5,16.3 Z"></path>
                            <path d="M48.5,8.3 C45.3,7 38.4,6.3 38.4,6.3 L36.8,6.3 C33.8,3.4 29.1,1.6 29.1,1.6 L29.5,1.4 C28,0.6 23.7,0.3 19.8,0.4 L18.4,0.4 L34.4,16.4 L37.5,16.4 C37.1,12.9 38.7,10.4 41.6,10.1 C44.3,9.8 46.5,11.9 46.5,11.9 L51.5,11.8 L51.5,11.2 C51.4,11.1 50.7,9.1 48.5,8.3 Z"></path>
                        </g>
                        <g transform="translate(0.000000, 13.000000)" id="Shape" fill="#494949">
                            <path d="M51.7,3.1 C51.7,2.4 51.4,2.3 51.4,2.3 C51.4,2.3 51.4,2.6 51.1,2.6 L46.5,2.6 C45.6,1.4 44.2,0.7 42.5,0.7 C40,0.7 38,2.4 37.6,4.7 L31.7,4.7 L34.5,7.5 L38,7.5 L47,7.8 L47,7.8 L50.3,7.6 L51.8,5.8 L51.6,5.3 L51.9,5.2 L51.9,4.3 L51.7,3.1 Z"></path>
                            <path d="M28.6,4.6 L12.9,4.6 C12.1,2.1 10.5,0.7 8.1,0.6 C6.5,0.6 5.4,1.4 4.4,2.2 L4.2,2.1 C2.8,2.3 0.7,2 0.6,2 C0.5,2 0.2,2.2 0.2,2.2 C0.2,2.2 0,3.8 0,4 C0,4.2 0.1,4.2 0.1,4.2 C0,5.4 0.3,5.9 0.3,5.9 C0.9,6.8 2.1,7.1 2.7,7.2 C2.7,7.3 2.7,7.3 2.8,7.4 L13,7.4 L15.2,7.4 L31.4,7.4 L28.6,4.6 Z"></path>
                        </g>
                        <path d="M29.5,5.3 C29.5,5.3 34.4,7.3 38,10.3 L37.5,10.3 L36.1,10.3 C36.1,10.3 31.2,6.4 29,5.7 L29.1,5.5 L29.5,5.3 Z" id="Shape" fill="#545454"></path>
                        <path d="M16,1.4 C15.9,1.4 15.9,1.4 16,1.4 L16,1.4 L16,1.4" id="Shape" fill="#B7B7B7"></path>
                        <polygon id="Shape" fill="#545454" points="3.8 10.3 6.2 6.4 6.8 6.4 6.2 10.4"></polygon>
                        <path d="M20.6,12.3 C20.6,12.3 20.4,12.4 20.4,12.8 C20.4,13.2 20.6,13.3 20.6,13.3 L23.2,13.4 C23.2,13.4 23.5,13.3 23.5,13.1 C23.5,12.8 23.2,12.7 23.2,12.7 L20.6,12.3 Z" id="Shape" fill="#545454"></path>
                        <path d="M3.6,11.5 L3.4,13.1 C3.4,13.1 1,13.1 0.6,13.5 L0.6,13.1 C0.6,13.1 1.5,11.8 2.8,11.5 L3.6,11.5 Z" id="Shape" fill="#D1D1D1"></path>
                        <path d="M48.3,13.1 L50.1,13.3 C50.5,13.6 51.2,14.7 51.2,14.7 L47.2,14.5 C47.1,14.4 48,13.2 48.3,13.1 Z" id="Shape" fill="#D1D1D1"></path>
                        <g transform="translate(4.000000, 14.000000)">
                            <circle id="Oval" fill="#545454" cx="4.1" cy="4.5" r="4"></circle>
                            <circle id="Oval" fill="#E6E6E6" cx="4.1" cy="4.5" r="3"></circle>
                            <path d="M6.6,2.7 C6.4,2.5 6.3,2.3 6.1,2.1 L4.6,3.5 L4.7,1.5 L4.2,1.5 L3.9,1.5 L3.8,3.5 L2.4,2 C2.2,2.2 2,2.3 1.8,2.5 L3.2,4 L1.2,3.9 L1.2,4.4 L1.2,4.7 L3.2,4.8 L1.7,6.2 C1.9,6.4 2,6.6 2.2,6.8 L3.7,5.4 L3.6,7.4 L4.1,7.4 L4.4,7.4 L4.5,5.4 L5.9,6.9 C6.1,6.7 6.3,6.6 6.5,6.4 L5.1,4.9 L7.1,5 L7.1,4.5 L7.1,4.2 L5.1,4.1 L6.6,2.7 Z" id="Shape" fill="#494949"></path>
                        </g>
                        <g transform="translate(38.000000, 14.000000)">
                            <circle id="Oval" fill="#545454" cx="4.5" cy="4.5" r="4"></circle>
                            <circle id="Oval" fill="#E6E6E6" cx="4.5" cy="4.5" r="3"></circle>
                            <path d="M6.9,2.7 C6.7,2.5 6.6,2.3 6.4,2.1 L4.9,3.5 L5,1.5 L4.5,1.5 L4.2,1.5 L4.1,3.5 L2.7,2 C2.5,2.2 2.3,2.3 2.1,2.5 L3.5,4 L1.5,3.9 L1.5,4.4 L1.5,4.7 L3.5,4.8 L2,6.3 C2.2,6.5 2.3,6.7 2.5,6.9 L4,5.5 L3.9,7.5 L4.4,7.5 L4.7,7.5 L4.8,5.5 L6.2,7 C6.4,6.8 6.6,6.7 6.8,6.5 L5.4,5 L7.4,5.1 L7.4,4.6 L7.4,4.3 L5.4,4.2 L6.9,2.7 Z" id="Shape" fill="#494949"></path>
                        </g>
                        <path d="M33,8.7 C27.5,4.7 19.9,5.4 19.9,5.4 L19.9,5.9 L24.9,10.9 L35.5,11.4 L35.9,10.9 C35.9,10.9 35.4,10.5 33,8.7 Z" id="Shape" fill="#545454"></path>
                        <path d="M16.7,5.6 C10.5,6.3 7.4,10.3 7.5,10.5 L18.3,10.5 L18.3,7.2 L16.7,5.6 Z" id="Shape" fill="#545454"></path>
                        <rect id="Rectangle-path" fill="#E6E6E6" transform="translate(21.935360, 12.215080) rotate(-45.040515) translate(-21.935360, -12.215080) " x="20.9353693" y="-2.7847799" width="1.99998132" height="29.9997198"></rect>
                    </g>
                </g>
            </g>
        </g>
    </g>
</svg>