<?xml version="1.0" encoding="UTF-8"?>
<svg width="46px" height="22px" viewBox="0 0 46 22" version="1.1" xmlns="http://www.w3.org/2000/svg" xmlns:xlink="http://www.w3.org/1999/xlink">
    <!-- Generator: Sketch 47.1 (45422) - http://www.bohemiancoding.com/sketch -->
    <title>mini_Offline@1.5x</title>
    <desc>Created with Sketch.</desc>
    <defs></defs>
    <g id="01-Design:-Flow-and-UI" stroke="none" stroke-width="1" fill="none" fill-rule="evenodd">
        <g id="01.02-(Low-Severity-DTC,-Low-Battery)-Copy-3" transform="translate(-165.000000, -922.000000)">
            <g id="mini_Offline" transform="translate(165.000000, 922.000000)">
                <g id="Layer_1">
                    <g id="Group">
                        <g transform="translate(0.000000, 10.000000)" id="Shape" fill="#494949">
                            <polygon points="44.3 3.5 39.9 0.7 23.1 0.7 31.3 8.9 43.2 8.9 44.9 7.9"></polygon>
                            <polygon points="19.4 0.5 9.5 0.4 2.3 2.6 0.7 6.2 1.1 8.7 12.5 8.9 27.9 8.9"></polygon>
                        </g>
                        <g transform="translate(3.000000, 4.000000)" id="Shape" fill="#7C7C7C">
                            <path d="M11.2,0.9 C9,1 4.2,0.9 3.1,1 C1.8,2.7 0.2,5.3 0.2,5.3 L1.9,6 L16.3,6 L11.2,0.9 Z"></path>
                            <path d="M19.1,5.8 L31.9,5.8 C28.7,3 26.2,0.9 26.2,0.9 L23.1,0.7 L16.4,1 L14.3,1 L19.1,5.8 Z"></path>
                        </g>
                        <g transform="translate(0.000000, 3.000000)" id="Shape" fill="#E5E5E5">
                            <path d="M17.4,2.1 L26.3,2.1 L30.8,7 L32.7,7 L27.7,1.9 L29.3,1.9 C29.3,1.9 28.9,1.2 26.8,1.1 C25.9,1.1 21.3,0.9 16.1,0.9 L17.4,2.1 Z"></path>
                            <path d="M44.9,11.4 C44.9,11.3 44.8,11.1 44.8,10.9 L44.8,10.9 L44.8,10.9 C44.7,10.5 44.5,9.4 43.5,8.8 C42.4,8.3 41.1,7.5 37.4,6.9 C36.6,6.8 35.8,6.7 34.8,6.7 L22,6.7 L30,14.6 L33,14.6 C33,14.6 33.3,8.9 38.4,9 C43,9 44.1,13.4 44.3,15 L45,15 L45,14.2 L45.5,13.7 L45.5,12 C45.5,12 45,11.8 44.9,11.4 Z"></path>
                            <path d="M19,6.5 L17.7,6.5 L17.6,5.2 L17,4.6 L17.1,6.6 L5.5,6.6 L7.8,2.2 L14.5,2.2 L13.4,1 C12.2,1 10.9,1.1 9.7,1.1 C7.4,1.2 6.3,1.7 6,2.1 L6.4,2.1 L4,6.4 L3.4,6 L3.2,6.3 C3.2,6.3 1.5,6.1 1.5,10.6 L0.7,11.2 C0.7,11.2 0.1,12 0.7,14 C0.7,14 1.5,13.8 1.5,12.7 C1.5,11.6 3.3,9.2 6.8,9.2 C10.3,9.2 12.4,12.2 12.4,14.6 L26.9,14.6 L19,6.5 Z"></path>
                        </g>
                        <path d="M33.9,17.4 C33.8,20 35.9,22.1 38.5,22 C40.9,21.9 42.8,20 42.9,17.6 C43,15 40.9,12.9 38.3,13 C35.9,13.1 33.9,15.1 33.9,17.4 Z" id="Shape" fill="#545454"></path>
                        <circle id="Oval" fill="#E5E5E5" cx="38.4" cy="17.6" r="2"></circle>
                        <path d="M35.4,17.6 C35.4,19.3 36.7,20.6 38.4,20.6 C40.1,20.6 41.4,19.3 41.4,17.6 C41.4,15.9 40.1,14.6 38.4,14.6 C36.7,14.6 35.4,15.9 35.4,17.6 Z M35.9,17.7 C35.8,16.2 37,15 38.5,15.1 C39.7,15.2 40.7,16.2 40.8,17.4 C40.9,18.9 39.7,20.1 38.2,20 C37,20 36,19 35.9,17.7 Z" id="Shape" fill="#B2B2B3"></path>
                        <path d="M2.4,17.4 C2.3,20 4.4,22.1 7,22 C9.4,21.9 11.3,20 11.4,17.6 C11.5,15 9.4,12.9 6.8,13 C4.4,13.1 2.5,15.1 2.4,17.4 Z" id="Shape" fill="#545454"></path>
                        <circle id="Oval" fill="#E5E5E5" cx="6.9" cy="17.6" r="2"></circle>
                        <path d="M3.9,17.6 C3.9,19.3 5.2,20.6 6.9,20.6 C8.6,20.6 9.9,19.3 9.9,17.6 C9.9,15.9 8.6,14.6 6.9,14.6 C5.2,14.6 3.9,15.9 3.9,17.6 Z M4.4,17.7 C4.3,16.2 5.5,15 7,15.1 C8.2,15.2 9.2,16.2 9.3,17.4 C9.4,18.9 8.2,20.1 6.7,20 C5.5,20 4.5,19 4.4,17.7 Z" id="Shape" fill="#B2B2B3"></path>
                        <path d="M42.3,11.6 C42.3,11.5 42.4,11.4 42.4,11.4 L42.5,11.3 C42.9,11.4 43.1,11.6 43.4,11.7 C43.6,11.8 44,12.1 44.2,12.4 C44.3,12.6 44.2,12.7 44.2,12.9 C44.2,13 44.1,13.1 44.1,13.1 C44,13.2 43.8,13.3 43.5,13.2 C43.2,13.1 43,13 42.7,12.7 C42.4,12.5 42.2,12 42.3,11.6 Z" id="Shape" fill="#B7B7B7"></path>
                        <ellipse id="Oval" fill="#B7B7B7" transform="translate(2.639170, 11.709160) rotate(-77.607914) translate(-2.639170, -11.709160) " cx="2.63917" cy="11.5091604" rx="1.29999743" ry="1"></ellipse>
                        <path d="M45.5,16.6 L43.8,16.6 L43.8,16.9 C44,17.3 44,17.7 44,18 L45,18 L45,17.1 L45,17.1 L45,17.1 L45.5,16.6 Z" id="Shape" fill="#494949"></path>
                        <path d="M0.8,14.2 L1.5,13.6 L1.5,12.9 C2,13.3 2.6,13.5 3.1,13.6 C2,14.3 2,15 2,15.6 C2,16.7 0.9,17.3 0.9,17.3 C0.1,14.9 0.8,14.2 0.8,14.2 Z" id="Shape" fill="#494949"></path>
                        <rect id="Rectangle-path" fill="#E6E6E6" transform="translate(19.409680, 11.404100) rotate(-45.040515) translate(-19.409680, -11.404100) " x="18.4096893" y="-2.59576924" width="1.99998132" height="27.9997385"></rect>
                    </g>
                </g>
            </g>
        </g>
    </g>
</svg>