<?xml version="1.0" encoding="UTF-8"?>
<svg width="54px" height="23px" viewBox="0 0 54 23" version="1.1" xmlns="http://www.w3.org/2000/svg" xmlns:xlink="http://www.w3.org/1999/xlink">
    <!-- Generator: Sketch 47.1 (45422) - http://www.bohemiancoding.com/sketch -->
    <title>sedan_Offline@1.5x</title>
    <desc>Created with Sketch.</desc>
    <defs></defs>
    <g id="01-Design:-Flow-and-UI" stroke="none" stroke-width="1" fill="none" fill-rule="evenodd">
        <g id="01.02-(Low-Severity-DTC,-Low-Battery)-Copy-3" transform="translate(-90.000000, -923.000000)">
            <g id="sedan_Offline" transform="translate(90.000000, 923.000000)">
                <g id="Layer_1">
                    <g id="Group">
                        <g transform="translate(0.000000, 3.000000)" id="Shape" fill="#E5E5E5">
                            <path d="M19.3,0.9 C17.2,1 15.8,1.2 15.8,1.2 C13.6,1.5 6.2,4.9 6.2,4.9 L3.5,5.2 C1.5,4.9 1.8,6.2 1.8,6.2 L0.5,10.8 L0.7,13.8 C0.8,14.3 2.2,14.6 2.2,14.6 L6.9,15.4 C6.4,12.2 8.8,10.8 8.8,10.8 C15.6,7.7 16.2,15.8 16.2,15.8 L34.2,15.7 L19.3,0.9 Z"></path>
                            <path d="M53.2,11.4 C53,9.1 50.6,7.8 50.6,7.8 C48.9,6.9 39.5,5.3 39.5,5.3 C38,4 31.6,1.6 31.6,1.6 C28.9,0.8 25.2,0.7 22.1,0.8 L37,15.7 L39.2,15.7 C39.5,9.2 44.8,10.2 44.8,10.2 C49.2,10.9 48.5,15.8 48.5,15.8 C49.8,15.9 53.1,15 53.1,15 C54,13.8 53.2,11.4 53.2,11.4 Z"></path>
                        </g>
                        <path d="M38.1,17.9 L37.9,17.8 C39.7,12.5 39.6,9.9 39.6,9.9 L39.9,9.9 C39.9,9.6 39.9,10.5 39.7,11.9 C39.5,13.1 39,15.1 38.1,17.9 Z" id="Shape" fill="#D1D1D1"></path>
                        <path d="M38.9,9.1 L34.1,6.6 C34.1,6.6 32,5.3 29.5,5.1 C29.5,5.1 27.6,4.9 25.2,4.8 L25.7,7.4 L27.7,9.4 C31.1,9.7 38.9,10.3 39.8,10.1 C39.8,10.2 40.2,9.9 38.9,9.1 Z" id="Shape" fill="#545454"></path>
                        <polygon id="Shape" fill="#D1D1D1" points="26.4 10.9 27.7 17.9 28 17.9 26.8 11.3"></polygon>
                        <path d="M18.3,17.7 C18.2,15.8 13.3,12 13.3,12 L13.3,12 C11.9,10.6 13.3,8.7 13.3,8.7 L13.7,8.7 C13.7,8.7 12.3,10.6 13.6,11.8 C14.1,12.2 18.7,15.7 18.7,17.6 L18.3,17.7 Z" id="Shape" fill="#D1D1D1"></path>
                        <g transform="translate(0.000000, 12.000000)" id="Shape" fill="#494949">
                            <path d="M33.6,7.1 L32.1,5.6 L16,5.5 C15.8,2.9 13.7,0.8 11,0.8 C8.5,0.8 6.5,2.6 6.1,5 L0.5,4.3 C0.5,4.3 0.2,5.6 1.7,5.7 L7.2,6.4 L7.2,6.3 L13.1,6.8 L13.1,7 L33.6,7.1 Z"></path>
                            <path d="M53.5,5.5 L49,5.5 C48.9,2.8 46.7,0.7 44,0.7 C41.3,0.7 39,2.9 39,5.7 L35.9,5.7 L37.4,7.2 L39.2,7.2 L39.2,7.2 L40.3,7.2 L40.8,7.2 L40.8,7.2 L47.5,7.3 L47.5,7.3 L47.8,7.3 L48.5,7.3 L48.5,7.3 L52.5,7.2 C53.7,7.1 53.5,5.5 53.5,5.5 Z"></path>
                        </g>
                        <g transform="translate(13.000000, 4.000000)" id="Shape" fill="#545454">
                            <path d="M10.8,1.6 L10.8,0.9 L10.1,0.9 L10.8,1.6 Z"></path>
                            <path d="M7.3,0.9 C6,1 4.8,1.1 4.8,1.1 C2.3,1.2 0.2,4.7 0.2,4.7 L11,5.1 L11,4.5 L7.3,0.9 Z"></path>
                        </g>
                        <path d="M21,5.6 L18,5.8 C15.7,6.5 15,8.4 15,8.4 L23,8.6 L23,7.7 L21,5.6 Z" id="Shape" fill="#7C7C7C"></path>
                        <path d="M52.4,12.3 C52.4,12.3 50.2,11.8 49.3,12 C49.3,12 49,12 49.2,12.2 C49.2,12.2 49.8,13 50.1,13.1 C50.1,13.1 53.1,14 53.3,14.7 C53.3,14.8 53.3,13.4 52.4,12.3 Z" id="Shape" fill="#D1D1D1"></path>
                        <path d="M1.5,10.1 C1.5,10.1 3.6,10.3 4,10.6 C4,10.6 4.5,10.7 3.8,11.2 C3.8,11.2 3.6,11.8 2.7,12 C2.7,12 1,11.9 0.8,12.5 C0.9,12.5 1,11.7 1.5,10.1 Z" id="Shape" fill="#D1D1D1"></path>
                        <path d="M15.5,17.7 L15.5,17.7 C15.5,15.2 13.5,13.2 11,13.2 C8.5,13.2 6.5,15.2 6.5,17.7 L6.5,17.7 L6.5,17.7 L6.5,17.7 C6.5,18.3 6.6,18.9 6.9,19.5 C7.6,21.1 9.2,22.2 11,22.2 C13.5,22.2 15.5,20.2 15.5,17.7 L15.5,17.7 Z" id="Shape" fill="#545454"></path>
                        <path d="M13.5,17.7 C13.5,19.1 12.4,20.2 11,20.2 C9.6,20.2 8.5,19.1 8.5,17.7 C8.5,16.3 9.6,15.2 11,15.2 C12.4,15.2 13.5,16.4 13.5,17.7" id="Shape" fill="#E5E5E5"></path>
                        <path d="M48.5,17.7 L48.5,17.7 C48.5,15.2 46.5,13.2 44,13.2 C41.5,13.2 39.5,15.2 39.5,17.7 L39.5,17.7 L39.5,17.7 L39.5,17.7 C39.5,18.3 39.6,18.9 39.9,19.5 C40.6,21.1 42.2,22.2 44,22.2 C46.5,22.2 48.5,20.2 48.5,17.7 L48.5,17.7 Z" id="Shape" fill="#545454"></path>
                        <path d="M46.5,17.7 C46.5,19.1 45.4,20.2 44,20.2 C42.6,20.2 41.5,19.1 41.5,17.7 C41.5,16.3 42.6,15.2 44,15.2 C45.4,15.2 46.5,16.4 46.5,17.7" id="Shape" fill="#E5E5E5"></path>
                        <polygon id="Shape" fill="#E6E6E6" points="36 20.5 34.6 21.9 15 2.3 16.4 0.9"></polygon>
                        <path d="M27.1,8.8 L35.1,9.4 L36.8,9 C35.2,7.6 31.2,6.1 31.2,6.1 C30.1,5.5 26.3,5.3 26.3,5.3 C26.3,5.3 26.7,7.6 26.9,8.4 L27.1,8.8 Z" id="Shape" fill="#7C7C7C"></path>
                    </g>
                </g>
            </g>
        </g>
    </g>
</svg>