<?xml version="1.0" encoding="UTF-8"?>
<svg width="40px" height="24px" viewBox="0 0 40 24" version="1.1" xmlns="http://www.w3.org/2000/svg" xmlns:xlink="http://www.w3.org/1999/xlink">
    <!-- Generator: Sketch 47.1 (45422) - http://www.bohemiancoding.com/sketch -->
    <title>SmartCar_Offline@1.5x</title>
    <desc>Created with Sketch.</desc>
    <defs></defs>
    <g id="01-Design:-Flow-and-UI" stroke="none" stroke-width="1" fill="none" fill-rule="evenodd">
        <g id="01.02-(Low-Severity-DTC,-Low-Battery)-Copy-3" transform="translate(-25.000000, -922.000000)">
            <g id="SmartCar_Offline" transform="translate(25.000000, 922.000000)">
                <g id="Layer_1">
                    <g id="Group">
                        <g transform="translate(0.000000, 1.000000)" id="Shape" fill="#E5E5E5">
                            <path d="M12.3,7.5 L7,6 L7.5,4.2 C7.7,3.9 7.8,3.6 8.1,3.3 L6.1,1.4 C5.4,1.8 4.9,2.3 4.5,3.1 L2.3,8.1 L1.5,14 L1,14.2 C0.5,14.3 0.2,14.7 0.2,15.2 L0.3,17.1 C0.3,17.5 0.6,17.9 1,18 L2.3,18.3 L7.3,19.3 L24.5,19.3 L12.3,7.5 Z"></path>
                            <path d="M39.1,14.1 C38.9,11.7 37.3,9.4 35,8.5 L33,8.1 L31.9,8 C27.4,3.4 23.9,0.9 21.4,0.6 C17.2,0.1 12.7,0.4 8.4,0.8 L10.1,2.4 C10.2,2.4 10.4,2.4 10.5,2.3 C13.3,2 14,2 16.8,2 C18.4,2 19.9,2.1 21.4,2.3 C23.8,2.6 25.9,3.8 29.8,7.8 L15.9,8 L27.6,19.3 L36.3,19.3 C38.1,19.3 39.5,17.8 39.3,16.1 L39.1,14.1 Z"></path>
                        </g>
                        <g transform="translate(3.000000, 2.000000)" id="Shape" fill="#7C7C7C">
                            <path d="M18.6,15.4 L11.8,15.4 C10.4,11.8 10.5,9.7 11,8.2 L5,3 C4.9,3.1 4.6,3.3 4.5,3.3 L3.6,5.4 L9.1,7 C7.9,9.8 8.5,12.8 9.5,15.5 L0,15.5 L0,17.5 L4.4,18.4 L21.6,18.4 L18.6,15.4 Z"></path>
                            <path d="M23.9,15.5 C24.4,13.2 24.7,11.1 24.6,9.3 C24.6,8.3 24.5,7.6 24.4,7.2 L27.2,7.2 C23.6,3 20.6,0.9 18.2,0.6 C16.8,0.4 15.3,0.3 13.6,0.3 C10.8,0.3 10.1,0.3 7.3,0.6 C6.9,0.6 6.6,0.7 6.3,0.8 L12.9,7.2 L22.2,7.2 L22.2,7.3 C22.2,7.3 22.4,8 22.4,9.4 C22.4,11.5 22,13.7 21.6,15.4 L21.3,15.4 L24.3,18.3 L33,18.3 C34.7,18.3 36,17 36,15.5 L23.9,15.5 Z"></path>
                        </g>
                        <path d="M1.7,13.9 L1.7,13.9 L2.3,10 L2.4,9.9 C3.2,9.9 3.8,10.3 3.8,10.8 L3.6,12.7 C3.5,13.3 2.7,13.8 1.7,13.9" id="Shape" fill="#727273"></path>
                        <path d="M6.4,13.4 C9.4,13.4 11.9,16 11.9,19.1 C11.9,19.5 11.8,20 11.8,20.4 L7.7,20.4 L2.8,19.3 L1.5,19 C1.3,18.9 1,18.8 0.9,18.5 C1.2,15.7 3.5,13.4 6.4,13.4" id="Shape" fill="#CCCBCB"></path>
                        <path d="M39.2,17.7 C39,19.2 37.8,20.4 36.2,20.3 L28.3,20.3 C28.2,19.9 28.2,19.5 28.2,19 C28.2,15.8 30.7,13.3 33.8,13.3 C36.4,13.4 38.6,15.2 39.2,17.7" id="Shape" fill="#CCCBCB"></path>
                        <path d="M2.7,19.3 L1.8,19.1 C1.8,16.5 3.8,14.4 6.3,14.4 C8.8,14.4 10.8,16.5 10.8,19.1 C10.8,19.5 10.7,20 10.6,20.4 L7.5,20.4 L2.7,19.3 Z" id="Shape" fill="#444444"></path>
                        <path d="M29.4,20.4 C29.3,20 29.2,19.6 29.2,19.1 C29.2,16.5 31.2,14.4 33.7,14.4 C36.2,14.4 38.2,16.5 38.2,19.1 L38.2,19.4 C37.7,20 36.9,20.3 36.1,20.3 L29.4,20.4 Z" id="Shape" fill="#444444"></path>
                        <path d="M37.7,18.9 C37.7,21.1 35.9,22.9 33.7,22.9 C31.5,22.9 29.7,21.1 29.7,18.9 C29.7,16.7 31.5,14.9 33.7,14.9 C35.9,14.9 37.7,16.7 37.7,18.9" id="Shape" fill="#4F4F4F"></path>
                        <path d="M35.9,18.9 C35.9,20.1 34.9,21.1 33.7,21.1 C32.5,21.1 31.5,20.1 31.5,18.9 C31.5,17.7 32.5,16.7 33.7,16.7 C34.9,16.7 35.9,17.7 35.9,18.9" id="Shape" fill="#CCCBCB"></path>
                        <g transform="translate(2.000000, 14.000000)" id="Shape">
                            <path d="M8.5,5 C8.5,7.3 6.6,9.1 4.4,9.1 C2.1,9.1 0.3,7.3 0.3,5 C0.3,2.7 2.2,0.9 4.4,0.9 C6.7,0.9 8.5,2.7 8.5,5" fill="#4F4F4F"></path>
                            <path d="M6.6,5 C6.6,6.2 5.6,7.2 4.4,7.2 C3.2,7.2 2.2,6.2 2.2,5 C2.2,3.8 3.2,2.8 4.4,2.8 C5.6,2.8 6.6,3.8 6.6,5" fill="#CCCBCB"></path>
                        </g>
                        <path d="M37.8,13.9 C37.6,14.1 37,13.7 36.5,12.9 C36,12.1 35.8,11.3 36.1,11 C36.3,10.8 36.9,11.2 37.4,12 C37.8,12.8 38,13.7 37.8,13.9" id="Shape" fill="#727273"></path>
                        <rect id="Rectangle-path" fill="#E6E6E6" transform="translate(14.287480, 11.712800) rotate(-45.988599) translate(-14.287480, -11.712800) " x="13.2874822" y="-3.2871676" width="1.99999568" height="29.9999352"></rect>
                    </g>
                </g>
            </g>
        </g>
    </g>
</svg>