<?xml version="1.0" encoding="UTF-8"?>
<svg width="52px" height="20px" viewBox="0 0 52 20" version="1.1" xmlns="http://www.w3.org/2000/svg" xmlns:xlink="http://www.w3.org/1999/xlink">
    <!-- Generator: Sketch 47.1 (45422) - http://www.bohemiancoding.com/sketch -->
    <title>sports_Offline@1.5x</title>
    <desc>Created with Sketch.</desc>
    <defs></defs>
    <g id="01-Design:-Flow-and-UI" stroke="none" stroke-width="1" fill="none" fill-rule="evenodd">
        <g id="01.02-(Low-Severity-DTC,-Low-Battery)-Copy-3" transform="translate(-162.000000, -968.000000)">
            <g id="sports_Offline" transform="translate(162.000000, 968.000000)">
                <g id="Layer_1">
                    <g id="Group">
                        <g transform="translate(0.000000, 3.000000)" id="Shape" fill="#E5E5E5">
                            <path d="M51.4,10.4 C47.4,4.2 38.4,4.4 38.4,4.4 C34.3,4.4 31.3,0.3 23.5,0.3 C22.7,0.3 22,0.3 21.3,0.4 L33.9,13.3 L50.8,13.3 C51.2,12.3 50.2,12.1 50.2,12.1 C51.9,10.9 51.4,10.4 51.4,10.4 Z"></path>
                            <path d="M18.8,0.8 C13.3,1.7 10.3,4.1 10.3,4.1 C1.9,4 0.5,6 0.5,6 L0.5,9.7 C1.8,11.9 4.3,13.3 4.3,13.3 L31.1,13.4 L18.8,0.8 Z"></path>
                        </g>
                        <g transform="translate(0.000000, 8.000000)" id="Shape" fill="#494949">
                            <path d="M27.7,5.4 L13.5,5.3 C13.4,2.6 11.2,0.4 8.5,0.4 C6.3,0.4 4.4,1.9 3.8,3.9 L0.5,3.3 L0.5,4.5 C1.8,6.7 4.3,8.1 4.3,8.1 C4.3,8.1 4.3,8.2 4.4,8.2 L12.7,8.2 C12.7,8.2 12.7,8.1 12.8,8.1 L30.6,8.1 L27.7,5.4 Z"></path>
                            <path d="M51.5,5.6 L51.5,5.6 L46.2,5.6 C46.1,2.8 43.9,0.6 41.2,0.6 C38.5,0.6 36.3,2.8 36.2,5.5 L31.1,5.5 L33.9,8.3 L37,8.3 C37,8.3 37,8.4 37.1,8.4 L45.5,8.4 L45.6,8.3 L51,8.3 C51.4,7.3 50.4,7.1 50.4,7.1 C51.2,6.3 51.5,5.8 51.5,5.6 Z"></path>
                        </g>
                        <g transform="translate(15.000000, 4.000000)" id="Shape" fill="#7C7C7C">
                            <path d="M10.8,4.1 L20.3,4.1 C16.3,2 11.4,-0.1 6.9,0.1 L10.8,4.1 Z"></path>
                            <path d="M4.5,0.5 C0.9,1.4 0.4,3 0.4,3 L0.6,4 L8,4.1 L4.5,0.5 Z"></path>
                        </g>
                        <polygon id="Shape" fill="#494949" points="5 8.2 2.7 8.2 2 6.2 3.5 6.2"></polygon>
                        <path d="M3.9,10.4 C3.9,10.5 3.8,10.7 3.6,10.7 L2.4,10.7 C2.3,10.7 2.1,10.6 2.1,10.4 L2.1,9.8 C2.1,9.7 2.2,9.5 2.4,9.5 L3.6,9.5 C3.7,9.5 3.9,9.6 3.9,9.8 L3.9,10.4 Z" id="Shape" fill="#E0E0E0"></path>
                        <path d="M30.5,8 L31.2,8 L29.1,5.3 C28.8,5.2 28.5,5.1 28.2,5 L30.5,8 Z" id="Shape" fill="#99999A"></path>
                        <g transform="translate(4.000000, 9.000000)">
                            <circle id="Oval" fill="#545454" cx="4.5" cy="4.5" r="4.5"></circle>
                            <circle id="Oval" fill="#E5E6E7" cx="4.5" cy="4.5" r="4"></circle>
                            <circle id="Oval" fill="#545454" cx="4.5" cy="4.5" r="3"></circle>
                            <g transform="translate(1.000000, 1.000000)" id="Shape" fill="#E5E6E7">
                                <path d="M3.6,3.7 C3.5,3.7 3.5,3.7 3.4,3.6 C3.3,3.5 3.3,3.4 3.4,3.3 L5.6,0.8 C5.7,0.7 5.8,0.7 5.9,0.8 C6,0.9 6,1 5.9,1.1 L4.5,2.7 L6.4,1.7 C6.5,1.6 6.6,1.7 6.7,1.8 C6.8,1.9 6.7,2 6.6,2.1 L3.6,3.7 L3.6,3.7 Z"></path>
                                <path d="M6.2,6 C6.1,6 6.1,6 6,5.9 L3.5,3.6 C3.4,3.5 3.4,3.4 3.5,3.3 C3.6,3.2 3.7,3.2 3.8,3.2 L6.9,4.5 C7,4.5 7.1,4.7 7,4.8 C7,4.9 6.8,5 6.7,4.9 L4.7,4.1 L6.3,5.5 C6.4,5.6 6.4,5.7 6.3,5.8 C6.3,6 6.2,6 6.2,6 Z"></path>
                                <path d="M3.3,7 L3.3,7 C3.2,7 3.1,6.9 3.1,6.8 L3.3,4.7 L2.3,6.6 C2.2,6.7 2.1,6.8 2,6.7 C1.9,6.6 1.8,6.5 1.9,6.4 L3.4,3.4 C3.4,3.3 3.6,3.3 3.7,3.3 C3.8,3.3 3.9,3.4 3.9,3.5 L3.5,6.8 C3.5,6.9 3.4,7 3.3,7 Z"></path>
                                <path d="M0.3,4.4 C0.2,4.4 0.1,4.3 0.1,4.2 C0.1,4.1 0.2,4 0.3,3.9 L2.4,3.5 L0.2,3.2 C0.1,3.2 3.55271368e-15,3.1 3.55271368e-15,3 C3.55271368e-15,2.9 0.1,2.8 0.3,2.8 L3.7,3.3 C3.8,3.3 3.9,3.4 3.9,3.5 C3.9,3.6 3.8,3.7 3.7,3.7 L0.3,4.4 L0.3,4.4 Z"></path>
                                <path d="M3.6,3.7 C3.5,3.7 3.4,3.7 3.4,3.6 L1.8,0.7 C1.7,0.6 1.8,0.5 1.9,0.4 C2,0.3 2.1,0.4 2.2,0.5 L3.2,2.3 L2.9,0.2 C2.9,0.1 3,0 3.1,0 C3.2,0 3.3,0.1 3.4,0.2 L3.9,3.5 C3.9,3.6 3.8,3.7 3.6,3.7 L3.6,3.7 Z"></path>
                            </g>
                        </g>
                        <path d="M47.3,9.7 C46.8,10 46.8,10.3 46.8,10.7 C46.9,11.4 47.9,11.9 48.9,11.7 C49.2,11.7 49.5,11.6 49.7,11.5 C49.3,11 48.4,10.3 47.3,9.7 Z" id="Shape" fill="#D1D1D1"></path>
                        <path d="M0.5,5.6 L5.5,5.6 C5.5,5.6 5.4,6.6 4.3,6.6 C4.3,6.6 1.1,6.6 0.5,5.6 Z" id="Shape" fill="#D1D1D1"></path>
                        <g transform="translate(36.000000, 9.000000)">
                            <circle id="Oval" fill="#545454" cx="5.2" cy="4.5" r="4.5"></circle>
                            <circle id="Oval" fill="#E5E6E7" cx="5.2" cy="4.5" r="4"></circle>
                            <circle id="Oval" fill="#545454" cx="5.2" cy="4.5" r="3"></circle>
                            <g transform="translate(1.000000, 1.000000)" id="Shape" fill="#E5E6E7">
                                <path d="M4.3,3.7 C4.2,3.7 4.2,3.7 4.1,3.6 C4,3.5 4,3.4 4.1,3.3 L6.3,0.8 C6.4,0.7 6.5,0.7 6.6,0.8 C6.7,0.9 6.7,1 6.6,1.1 L5.2,2.7 L7.1,1.7 C7.2,1.6 7.3,1.7 7.4,1.8 C7.5,1.9 7.4,2 7.3,2.1 L4.3,3.7 L4.3,3.7 Z"></path>
                                <path d="M6.8,6 C6.7,6 6.7,6 6.6,5.9 L4.1,3.6 C4,3.5 4,3.4 4.1,3.3 C4.2,3.2 4.3,3.2 4.4,3.2 L7.5,4.5 C7.6,4.5 7.7,4.7 7.6,4.8 C7.6,4.9 7.4,5 7.3,4.9 L5.3,4.1 L6.9,5.5 C7,5.6 7,5.7 6.9,5.8 C6.9,6 6.9,6 6.8,6 Z"></path>
                                <path d="M4,7 C3.9,7 3.9,7 4,7 C3.9,7 3.8,6.9 3.8,6.8 L4,4.7 L3,6.6 C2.9,6.7 2.8,6.8 2.7,6.7 C2.6,6.6 2.5,6.5 2.6,6.4 L4.1,3.4 C4.1,3.3 4.3,3.3 4.4,3.3 C4.5,3.3 4.6,3.4 4.6,3.5 L4.2,6.8 C4.2,6.9 4.1,7 4,7 Z"></path>
                                <path d="M1,4.4 C0.9,4.4 0.8,4.3 0.8,4.2 C0.8,4.1 0.9,4 1,3.9 L3.1,3.5 L0.9,3.2 C0.8,3.2 0.7,3.1 0.7,3 C0.7,2.9 0.8,2.8 1,2.8 L4.4,3.3 C4.5,3.3 4.6,3.4 4.6,3.5 C4.6,3.6 4.5,3.7 4.4,3.7 L1,4.4 L1,4.4 Z"></path>
                                <path d="M4.3,3.7 C4.2,3.7 4.1,3.7 4.1,3.6 L2.5,0.7 C2.4,0.6 2.5,0.5 2.6,0.4 C2.7,0.3 2.8,0.4 2.9,0.5 L3.9,2.3 L3.6,0.2 C3.6,0.1 3.7,0 3.8,0 C3.9,0 4,0.1 4.1,0.2 L4.6,3.5 C4.5,3.6 4.5,3.7 4.3,3.7 L4.3,3.7 Z"></path>
                            </g>
                        </g>
                        <g transform="translate(15.000000, 4.000000)" id="Shape" fill="#545454">
                            <path d="M4.6,0.8 L4.3,0.5 C0.7,1.4 0.3,3 0.3,3 L0.5,4 L0.8,4 L0.6,3.3 C0.7,3.3 1.1,1.7 4.6,0.8 Z"></path>
                            <path d="M6.9,0.1 L7.2,0.4 C11.5,0.2 16,2.1 19.9,4.1 L20.3,4.1 C16.3,2 11.5,-0.2 6.9,0.1 Z"></path>
                        </g>
                        <rect id="Rectangle-path" fill="#E6E6E6" transform="translate(23.700220, 10.203090) rotate(-44.404414) translate(-23.700220, -10.203090) " x="22.7002463" y="-2.29658156" width="1.99994745" height="24.9993431"></rect>
                    </g>
                </g>
            </g>
        </g>
    </g>
</svg>