<?xml version="1.0" encoding="UTF-8"?>
<svg width="56px" height="29px" viewBox="0 0 56 29" version="1.1" xmlns="http://www.w3.org/2000/svg" xmlns:xlink="http://www.w3.org/1999/xlink">
    <!-- Generator: Sketch 47.1 (45422) - http://www.bohemiancoding.com/sketch -->
    <title>SUV_Offline@1.5x</title>
    <desc>Created with Sketch.</desc>
    <defs></defs>
    <g id="01-Design:-Flow-and-UI" stroke="none" stroke-width="1" fill="none" fill-rule="evenodd">
        <g id="01.02-(Low-Severity-DTC,-Low-Battery)-Copy-3" transform="translate(-17.000000, -960.000000)">
            <g id="SUV_Offline" transform="translate(17.000000, 960.000000)">
                <g id="Layer_1">
                    <g id="Group">
                        <path d="M0.5,17.3 L0.5,19.7 C0.5,21.8 2.2,23.5 4.3,23.5 L51.5,24.2 L51.8,24.2 C53.8,24.2 55.4,22.6 55.4,20.7 L55.4,18.2 L54.6,17.5 C54.5,16.2 54.1,15.2 53.5,14.5 C51,13.2 47.1,12.5 42,12.2 L36.2,8 C34.1,6.5 31.6,5.6 28.9,5.6 C24.5,5.4 20.2,5.3 16,5.3 C13.2,5.3 10.5,5.4 7.7,5.7 L5.1,6 L5.1,6.3 L6,6.8 L1.5,12.4 L1,16.7 L0.5,17.3 Z M10.8,9.1 L11.5,6.8 C11.6,6.6 11.8,6.4 12,6.3 C14.7,5.8 25.8,6 28.5,6.3 C31.7,6.7 32.9,7.3 34.8,8.7 L39,12 L37.5,12.5 L18.6,11.3 C16.6,11.2 14.6,10.8 12.7,10.2 L11.1,9.7 C10.9,9.8 10.7,9.4 10.8,9.1 Z" id="Shape" fill="#E5E5E5"></path>
                        <path d="M10,9.5 L10.8,6.7 C10.9,6.4 11.1,6.2 11.4,6.1 C14.3,5.5 25.8,5.7 28.6,6.1 C32,6.5 33.5,7.6 35.6,9.3 L40,12.9 L38.1,13.7 L18.3,12.3 C16.2,12.2 14.1,11.7 12.1,11 L10.5,10.4 C10.1,10.3 9.9,9.9 10,9.5" id="Shape" fill="#7C7C7C"></path>
                        <path d="M28,13.2 L28,12.9 L27.6,11.3 C27.4,10.5 26.6,9.9 25.7,9.9 L25.7,9.9 L25,6.3 L24.1,6.3 L24.8,10.6 L24.8,10.9 L25,11.8 L25,11.9 L25,11.9 L25.3,13.2 L28,13.2 Z" id="Shape" fill="#545454"></path>
                        <path d="M10.7,11.4 C11.6,11.8 12.5,12.1 13.5,12.3 L13.2,10.9 C13,10 12.3,9.3 11.4,9.3 L11.3,9.3 C10.8,9.3 10.4,9.8 10.5,10.4 L10.7,11.4 Z" id="Shape" fill="#545454"></path>
                        <polygon id="Shape" fill="#B7B7B7" points="5.4 7.8 5.3 7.8 6 8 3.6 11.8 2 11.7"></polygon>
                        <path d="M54.3,14.7 C54.6,15.2 54.7,15.8 54.8,16.5 L54.8,17.5 L54.6,17.5 C54.1,17.5 53.6,17.2 53.3,16.8 L51.8,14.5 L54.3,14.7 Z" id="Shape" fill="#7C7C7C"></path>
                        <path d="M54.7,16 C54.7,15.6 54.5,15 54.3,14.7 L51.7,14.5 L52.7,16 L54.7,16 Z" id="Shape" fill="#B7B7B7"></path>
                        <path d="M1,16.1 L1.3,13.3 L4.4,13.3 C4.9,13.3 5.2,13.8 5,14.2 L4.4,15.4 C4.1,16 3.5,16.3 2.9,16.3 L1,16.1 Z" id="Shape" fill="#B7B7B7"></path>
                        <polygon id="Shape" fill="#E5E5E5" points="23.9 6.3 23 6.2 23.9 13.2 25 13.2"></polygon>
                        <path d="M10,9.2 C9.9,9.6 10,10.3 10.3,10.4 L11.9,11 C13.9,11.6 15.9,12 17.9,12.1 L36.7,13.3 L39.4,12.3 C41.4,13.7 38.5,14.7 37.4,14 L17.8,12.8 C15.7,12.7 13.5,12.3 11.5,11.7 L10,11.3 C9.6,11.2 9.2,10.9 9,10.5 C8.8,10.1 8.8,9.7 8.9,9.3 L10,9.2 Z" id="Shape" fill="#E5E5E5"></path>
                        <path d="M24.6,21.5 L24.7,15 C24.7,14.4 24.6,13.8 24.4,13.2 L24.2,12.6 L24.7,12.7 L24.9,13.2 C25.1,13.8 25.2,14.5 25.2,15.1 L25.1,21.6 L24.6,21.5 Z" id="Shape" fill="#B7B7B7"></path>
                        <path d="M10.2,17.1 L9.7,14.9 C9.4,13.4 9.5,12 9.9,10.9 L10.2,10.1 L10.4,10.4 L10.2,11 C9.8,12.2 9.7,13.5 10,14.8 L10.5,17 L10.2,17.1 Z" id="Shape" fill="#B7B7B7"></path>
                        <path d="M10,9.8 C10,9.4 10.6,7.5 10.6,7.5 C10.6,7.4 10.9,6.4 10.9,6.4 C11,6.2 11.1,6.1 11.3,6.1 C14.2,5.5 26.1,5.7 29,6.1 C32.5,6.5 33.7,7.4 35.8,9.1 L39.8,12.4 L38.9,12.7 L34.9,9.4 C33,7.9 31.9,7.1 28.8,6.7 C26.2,6.4 15.5,6.2 12.9,6.7 C12.7,6.7 12.5,6.9 12.4,7.2 L11.5,10 C11.4,10.4 11.5,10.8 11.8,10.9 C11.8,10.9 10.3,10.5 10.2,10.3 C10,10.1 10,10.1 10,9.8 Z" id="Shape" fill="#545454"></path>
                        <path d="M40.1,21.6 L39.6,21.6 L39.8,16.4 C39.8,15.4 39.5,14.4 38.9,13.5 L38.3,12.8 L38.7,12.6 L39.3,13.3 C40,14.3 40.3,15.3 40.3,16.4 L40.1,21.6 Z" id="Shape" fill="#B7B7B7"></path>
                        <path d="M55.5,22.2 C55.5,22.2 54.4,22.1 52.4,22 C52.3,19.5 50.3,17.5 47.7,17.4 L45.3,17.3 C42.7,17.2 40.6,19 40.3,21.4 C32.6,21.1 23.3,20.8 15.6,20.5 C15.2,18.4 13.3,16.8 11,16.8 L8.6,16.7 C6.3,16.6 4.3,18.1 3.7,20.1 C1.7,20 0.5,20 0.5,20 L0.5,20.3 C0.5,22 1.7,23.5 3.3,23.9 L3.3,23.9 L3.4,23.9 L3.6,23.9 C3.8,23.9 4,24 4.3,24 L15.6,24.2 L15.6,24.2 L40.1,24.6 L40.1,24.6 L51.7,24.8 L51.9,24.8 L52,24.8 L52,24.8 L52.4,24.8 L52.4,24.8 C53.9,24.6 55.1,23.6 55.5,22.2 Z" id="Shape" fill="#494949"></path>
                        <g transform="translate(4.000000, 18.000000)" id="Shape">
                            <path d="M0.4,5.7 C0.4,8.5 2.6,10.7 5.4,10.7 C8.2,10.7 10.4,8.5 10.4,5.7 C10.4,2.9 8.2,0.7 5.4,0.7 C2.7,0.7 0.5,2.9 0.4,5.7" fill="#545454"></path>
                            <path d="M2.9,5.7 C2.9,7.1 4,8.2 5.4,8.2 C6.8,8.2 7.9,7.1 7.9,5.7 C7.9,4.3 6.8,3.2 5.4,3.2 C4.1,3.2 3,4.3 2.9,5.7" fill="#E5E5E5"></path>
                        </g>
                        <g transform="translate(41.000000, 18.000000)" id="Shape">
                            <path d="M0.3,5.7 C0.3,8.5 2.5,10.7 5.3,10.7 C8.1,10.7 10.3,8.5 10.3,5.7 C10.3,2.9 8.1,0.7 5.3,0.7 C2.6,0.7 0.3,2.9 0.3,5.7" fill="#545454"></path>
                            <path d="M2.8,5.7 C2.8,7.1 3.9,8.2 5.3,8.2 C6.7,8.2 7.8,7.1 7.8,5.7 C7.8,4.3 6.7,3.2 5.3,3.2 C4,3.2 2.8,4.3 2.8,5.7" fill="#E5E5E5"></path>
                        </g>
                        <rect id="Rectangle-path" fill="#E6E6E6" transform="translate(23.877600, 14.592220) rotate(-45.040515) translate(-23.877600, -14.592220) " x="22.8776093" y="-2.90761655" width="1.99998132" height="34.9996731"></rect>
                        <rect id="Rectangle-path" fill="#FFFFFF" transform="translate(25.292200, 13.197140) rotate(-45.040515) translate(-25.292200, -13.197140) " x="24.2922093" y="-4.30269655" width="1.99998132" height="34.9996731"></rect>
                    </g>
                </g>
            </g>
        </g>
    </g>
</svg>