<?xml version="1.0" encoding="UTF-8"?>
<svg width="52px" height="20px" viewBox="0 0 52 20" version="1.1" xmlns="http://www.w3.org/2000/svg" xmlns:xlink="http://www.w3.org/1999/xlink">
    <!-- Generator: Sketch 47.1 (45422) - http://www.bohemiancoding.com/sketch -->
    <title>truck_Offline@1.5x</title>
    <desc>Created with Sketch.</desc>
    <defs></defs>
    <g id="01-Design:-Flow-and-UI" stroke="none" stroke-width="1" fill="none" fill-rule="evenodd">
        <g id="01.02-(Low-Severity-DTC,-Low-Battery)-Copy-3" transform="translate(-234.000000, -926.000000)">
            <g id="truck_Offline" transform="translate(234.000000, 926.000000)">
                <g id="Layer_1">
                    <g id="Group">
                        <path d="M19.8,4.4 L12.8,4.2 L3,4 C1.7,3.9 1,4.6 1,4.6 L20.8,5.5 L19.8,4.4 Z" id="Shape" fill="#545454"></path>
                        <g id="Shape" fill="#E5E5E5">
                            <path d="M21.1,5.4 L1,4.6 C1,4.6 0.1,8.5 1,10.9 C1,10.9 3.7,11 3.8,13.9 L6.8,14.1 C6.8,14.1 7.5,8.6 12.6,8.9 C12.6,8.9 16.8,9.1 17.2,14.4 L22.6,14.6 L30.5,15 L21.1,5.4 Z"></path>
                            <path d="M50.4,10.7 L50.7,7.9 C50.6,7 49.9,6.6 49.9,6.6 C45.9,5 38,4.4 38,4.4 L32.2,0.8 C29.5,0 24.3,0 24.3,0 C23.3,0 23.1,0.8 23.1,0.8 C23.1,0.8 22.7,2.5 22.4,3.9 L33.5,15.3 L48.3,16 L48.9,16 C49.5,15.9 51.3,14.8 51.3,14.8 C51.4,14 51.6,11.8 51.6,11.8 C51.5,11.6 50.4,10.7 50.4,10.7 Z"></path>
                        </g>
                        <path d="M37.2,6 C32.3,1.7 30.2,1.3 30.2,1.3 C29.1,0.8 24.6,0.9 24.6,0.9 C24.2,0.9 24,1.7 24,1.7 L23.6,5.2 L24.4,6.1 L37.5,6.9 C37.8,6.5 37.2,6 37.2,6 Z M33.4,6.1 L25.6,5.8 L24.6,4.7 C24.6,4.7 25.7,1.9 24.4,2.2 C24.4,2.2 23.9,1.4 24.6,1.4 C24.6,1.4 26.9,1.1 30.2,1.8 C30.2,1.8 31.7,2.4 33.9,4.4 C33.9,4.3 34.3,6.5 33.4,6.1 Z" id="Shape" fill="#545454"></path>
                        <g transform="translate(0.000000, 8.000000)" id="Shape" fill="#494949">
                            <path d="M29.1,6 L17.5,5.6 C17.3,3.1 15.2,1 12.5,0.8 C9.8,0.6 7.4,2.3 6.7,4.8 L4.5,4.6 C4.1,3.6 3.4,2.5 2,2.1 C2,2.1 0.8,2.7 0.9,3 C0.9,3 1.1,4.3 1.7,5.7 L4.7,6.1 L6.6,6.4 L6.6,6.4 L17.5,6.8 L17.5,6.8 L30.4,7.3 L29.1,6 Z"></path>
                            <path d="M51.6,4.5 C51.4,4.7 49.3,4.7 48.3,4.7 C47.5,2.9 45.7,1.6 43.6,1.5 C40.6,1.3 38,3.4 37.8,6.2 L32.5,6 L33.9,7.4 L38.2,7.6 L38.2,7.6 L47.9,8.4 L47.9,8.5 L48.4,8.5 C48.9,8.3 48.8,8 48.8,8 C49.8,7.8 51.5,6.9 51.5,6.9 C51.8,6.8 51.6,6.4 51.6,6.4 C52,5.2 51.6,4.5 51.6,4.5 Z"></path>
                        </g>
                        <path d="M50.6,8.4 C50.6,8.4 49.1,8.3 48.6,8.6 L47.6,9.9 C47.6,9.9 47.9,10.4 48.1,10.4 L50.4,10.3 L50.6,8.4 Z" id="Shape" fill="#D1D1D1"></path>
                        <g transform="translate(38.000000, 10.000000)">
                            <path d="M0.6,4.6 C0.5,7.2 2.6,9.3 5.2,9.2 C7.6,9.1 9.5,7.2 9.6,4.8 C9.7,2.2 7.6,0.1 5,0.2 C2.6,0.3 0.7,2.2 0.6,4.6 Z" id="Shape" fill="#545454"></path>
                            <circle id="Oval" fill="#E2E2E2" cx="5.2" cy="4.6" r="2"></circle>
                            <path d="M2.2,4.6 C2.2,6.3 3.5,7.6 5.2,7.6 C6.9,7.6 8.2,6.3 8.2,4.6 C8.2,2.9 6.9,1.6 5.2,1.6 C3.5,1.6 2.2,3 2.2,4.6 Z M2.7,4.6 C2.7,3.2 3.8,2.1 5.2,2.1 C6.6,2.1 7.7,3.2 7.7,4.6 C7.7,6 6.6,7.1 5.2,7.1 C3.8,7.1 2.7,6 2.7,4.6 Z" id="Shape" fill="#B2B2B3"></path>
                        </g>
                        <g transform="translate(7.000000, 9.000000)">
                            <path d="M0.5,5.3 C0.4,7.9 2.5,10 5.1,9.9 C7.5,9.8 9.4,7.9 9.5,5.5 C9.6,2.9 7.5,0.8 4.9,0.9 C2.5,1.1 0.5,3 0.5,5.3 Z" id="Shape" fill="#545454"></path>
                            <circle id="Oval" fill="#E2E2E2" cx="5" cy="5.4" r="2"></circle>
                            <path d="M2,5.4 C2,7.1 3.3,8.4 5,8.4 C6.7,8.4 8,7.1 8,5.4 C8,3.7 6.7,2.4 5,2.4 C3.4,2.4 2,3.7 2,5.4 Z M2.5,5.4 C2.5,4 3.6,2.9 5,2.9 C6.4,2.9 7.5,4 7.5,5.4 C7.5,6.8 6.4,7.9 5,7.9 C3.6,7.9 2.5,6.8 2.5,5.4 Z" id="Shape" fill="#B2B2B3"></path>
                        </g>
                        <path d="M6.5,14.5 L17.4,14.9" id="Shape" fill="#545454"></path>
                        <rect id="Rectangle-path" fill="#E6E6E6" transform="translate(24.382400, 10.222000) rotate(-44.404414) translate(-24.382400, -10.222000) " x="23.3824263" y="-2.27767156" width="1.99994745" height="24.9993431"></rect>
                    </g>
                </g>
            </g>
        </g>
    </g>
</svg>