<?xml version="1.0" encoding="UTF-8"?>
<svg width="51px" height="22px" viewBox="0 0 51 22" version="1.1" xmlns="http://www.w3.org/2000/svg" xmlns:xlink="http://www.w3.org/1999/xlink">
    <!-- Generator: Sketch 47.1 (45422) - http://www.bohemiancoding.com/sketch -->
    <title>van_Offline@1.5x</title>
    <desc>Created with Sketch.</desc>
    <defs></defs>
    <g id="01-Design:-Flow-and-UI" stroke="none" stroke-width="1" fill="none" fill-rule="evenodd">
        <g id="01.02-(Low-Severity-DTC,-Low-Battery)-Copy-3" transform="translate(-305.000000, -967.000000)">
            <g id="van_Offline" transform="translate(304.500000, 967.000000)">
                <g id="Layer_1">
                    <g id="Group">
                        <path d="M50.6,14.6 L50.6,14.1 C50.6,14.1 50.6,13.3 50.5,12.9 C50.4,12.3 50.3,11.8 50.1,11.4 C50.1,11.4 49,11.2 48.6,12.4 L48.6,14.6 L48.6,14.6 L48.6,17.4 L50.5,17.4 C50.5,17 50.6,14.6 50.6,14.6 Z" id="Shape" fill="#D1D1D1"></path>
                        <g transform="translate(1.000000, 3.000000)" id="Shape" fill="#E6E6E6">
                            <path d="M38.6,15 L38.6,15 L38.6,15 C38.6,15.1 38.6,15.1 38.6,15 Z"></path>
                            <path d="M3.5,0.1 C3.1,0.1 2.4,0.7 2.2,1 C1.6,1.7 0.7,3.2 0.5,5.3 C0.3,6.7 0.3,7 0.3,7.5 C0.1,9.4 0.2,11.1 0.2,12 L0.2,12.6 L1.2,12.6 C1.3,12.6 1.3,12.6 1.3,12.7 L1.5,15 L5.4,15.1 C5.4,13.9 5.9,12.8 6.7,12 C7.5,11.2 8.6,10.7 9.8,10.7 C11,10.7 12.1,11.2 12.9,12 C13.7,12.8 14.2,13.9 14.2,15.1 L14.2,14.8 L29.4,14.8 L29.5,14.8 L29.5,14.9 C29.5,15 29.5,15 29.6,15 L30.3,15 L15.2,0.1 L3.5,0.1 Z"></path>
                            <path d="M47.8,7.5 L43.6,6.3 C43.4,6.3 43.3,6.2 43.2,6.1 L38.2,2 C37.5,1.4 36.7,0.9 35.8,0.6 C35,0.3 34.1,0.2 33.2,0.2 L29.5,0.2 L29.5,0.2 L18,0.2 L33.2,15 L38.7,15 L38.7,14.8 L38.5,14.8 C38.6,13.7 39,12.8 39.7,12.1 L39.7,12 C40.4,11.3 41.8,10.9 42.9,10.8 C44.8,10.7 45.1,11.9 45.8,12.6 L48,12.6 L48,9.4 C48,8.9 48.4,8.4 49,8.4 L49.2,8.4 C48.8,8 48.4,7.7 47.8,7.5 Z M42,6.7 C41.9,6.9 41.8,7 41.6,7 L39.7,7 L39.7,7 L31.3,7 C31,7 30.7,6.8 30.6,6.6 L30.8,6.6 L30.8,1.3 C30.9,1.2 31,1.2 31.2,1.2 L33.1,1.2 C34.7,1.2 36.3,1.8 37.5,2.8 L41.8,6.4 C42,6.3 42.1,6.5 42,6.7 Z"></path>
                        </g>
                        <g transform="translate(0.000000, 13.000000)" id="Shape" fill="#545454">
                            <path d="M28.1,2.6 L15.1,2.6 C14.3,1.4 12.8,0.5 11.2,0.5 C9.6,0.5 8.1,1.3 7.3,2.6 L1.8,2.6 L1.8,1.8 L0.9,1.8 C0.8,1.8 0.8,2 0.8,2.3 L0.8,4.8 C0.8,5 0.9,5.2 0.9,5.3 L1.8,5.7 L1.8,5.6 L31.1,5.6 L28.1,2.6 Z"></path>
                            <path d="M49.9,2.5 L47.5,2.5 C46.7,1.3 45.2,0.4 43.6,0.4 C41.9,0.4 40.5,1.3 39.6,2.5 L31.7,2.5 L34.4,5.1 L34.6,5.3 L48.3,5.3 L48.3,5.3 L49,5.3 C49.9,5.3 50.6,4.7 50.7,3.9 L50.7,3.6 L50.7,3.3 C50.7,2.9 50.3,2.5 49.9,2.5 Z"></path>
                        </g>
                        <path d="M43.3,9.3 L39.9,6.5 L39.9,6.5 L39.6,6.3 L38.8,5.6 C38,5 37,4.5 36,4.2 C35.4,4 34.7,3.9 34.1,3.9 L31.9,3.9 C31.6,3.9 31.4,4.1 31.4,4.4 L31.4,9.4 C31.4,9.7 31.7,10 32,10 L41.3,10 L43,10 C43.2,10 43.3,9.9 43.3,9.8 C43.4,9.6 43.4,9.4 43.3,9.3 Z" id="Shape" fill="#7C7C7C"></path>
                        <path d="M11.1,14.5 C9.2,14.5 7.6,16.1 7.6,18 C7.6,19.9 9.2,21.5 11.1,21.5 C13,21.5 14.6,19.9 14.6,18 C14.6,16 13,14.5 11.1,14.5 Z" id="Shape" fill="#7C7C7C"></path>
                        <path d="M13.1,18 C13.1,19.1 12.2,20 11.1,20 C10.9,20 10.8,20 10.6,19.9 C9.7,19.7 9.1,18.9 9.1,18 C9.1,17.1 9.7,16.3 10.6,16.1 C10.8,16.1 10.9,16 11.1,16 C12.2,16 13.1,16.9 13.1,18 Z" id="Shape" fill="#E6E6E6"></path>
                        <g transform="translate(40.000000, 14.000000)" id="Shape">
                            <path d="M3.6,0.5 C1.7,0.5 0.1,2.1 0.1,4 C0.1,5.9 1.7,7.5 3.6,7.5 C5.5,7.5 7.1,5.9 7.1,4 C7.1,2 5.6,0.5 3.6,0.5 Z" fill="#7C7C7C"></path>
                            <path d="M5.6,4 C5.6,5.1 4.7,6 3.6,6 C3.4,6 3.3,6 3.1,5.9 C2.2,5.7 1.6,4.9 1.6,4 C1.6,3.1 2.2,2.3 3.1,2.1 C3.3,2.1 3.4,2 3.6,2 C4.7,2 5.6,2.9 5.6,4 Z" fill="#E6E6E6"></path>
                        </g>
                        <g transform="translate(1.000000, 8.000000)" id="Shape" fill="#B7B7B7">
                            <path d="M21.1,0.9 L0.7,0.9 C0.6,1.2 0.6,1.6 0.5,1.9 L22,1.9 L21.1,0.9 Z"></path>
                            <polygon points="25 1.9 29.6 1.9 29.6 0.9 23.9 0.9"></polygon>
                        </g>
                        <rect id="Rectangle-path" fill="#E6E6E6" transform="translate(22.411405, 10.624285) rotate(-45.469959) translate(-22.411405, -10.624285) " x="21.411381" y="-3.22604809" width="2.0000481" height="27.7006662"></rect>
                    </g>
                </g>
            </g>
        </g>
    </g>
</svg>