<?xml version="1.0" encoding="UTF-8"?>
<svg width="242px" height="516px" viewBox="0 0 242 516" version="1.1" xmlns="http://www.w3.org/2000/svg" xmlns:xlink="http://www.w3.org/1999/xlink">
    <!-- Generator: Sketch 48.1 (47250) - http://www.bohemiancoding.com/sketch -->
    <title>motion_car_vector@1.5x</title>
    <desc>Created with Sketch.</desc>
    <defs>
        <linearGradient x1="50%" y1="0%" x2="50%" y2="100%" id="linearGradient-1">
            <stop stop-color="#999999" offset="0%"></stop>
            <stop stop-color="#4A4A4A" offset="100%"></stop>
        </linearGradient>
        <path d="M179.679687,25.8486328 C179.573242,44.6894531 169.672852,88.2675781 164.69043,101.300781 C155.934235,95.8961562 127.517625,87.7549352 95.8339748,87.7285847 C64.1503247,87.7549352 37.8616632,95.3180312 29.1054688,100.722656 C23.9677734,87.4833984 13.4960937,41.3681641 14.7607422,25.5527344 C33.1953125,6.60351563 69.0058933,0.0703223205 95.6679497,0.0159636293 C122.662056,0.0703223205 158.540968,6.97296978 179.679687,25.8486328 Z" id="path-2"></path>
        <linearGradient x1="50%" y1="100%" x2="50%" y2="0%" id="linearGradient-3">
            <stop stop-color="#999999" offset="0%"></stop>
            <stop stop-color="#4A4A4A" offset="100%"></stop>
        </linearGradient>
        <path d="M21.8037109,336.774414 C21.0600586,331.644043 26.5952148,293.600098 28.9125977,271.861328 C51.3477005,280.020431 86.3248704,281.006557 95.8677676,281.015562 C127.578418,280.985639 141.429687,279.97998 164.297852,271.861328 C166.615234,293.600098 172.347168,331.644043 171.603516,336.774414 C170.636077,341.700797 143.349473,349.221036 96,349.248946 C48.4814453,349.249023 22.7729492,341.709961 21.8037109,336.774414 Z" id="path-4"></path>
        <linearGradient x1="3.061617e-15%" y1="50%" x2="100%" y2="50%" id="linearGradient-5">
            <stop stop-color="#818181" offset="0%"></stop>
            <stop stop-color="#4A4A4A" offset="100%"></stop>
        </linearGradient>
        <path d="M6.39208984,68.1401367 C6.53955078,189.87028 8.36783854,261.473307 11.8769531,282.949219 C15.34375,276.67627 23.3930664,255.256348 25.4179687,237.479004 C26.8105469,210.355469 26.0952148,142.5 24.1699219,129.158203 C22.6733398,116.320312 17.6786509,86.296481 14.0756836,73.9301758 C11.6737054,65.6859723 9.11250749,63.7559593 6.39208984,68.1401367 Z" id="path-6"></path>
        <path d="M168,68 C168.147461,189.730143 169.975749,261.333171 173.484863,282.809082 C176.95166,276.536133 185.000977,255.116211 187.025879,237.338867 C188.418457,210.215332 187.703125,142.359863 185.777832,129.018066 C184.28125,116.180176 179.286561,86.1563442 175.683594,73.7900391 C173.281616,65.5458356 170.720418,63.6158226 168,68 Z" id="path-7"></path>
    </defs>
    <g id="Page-1" stroke="none" stroke-width="1" fill="none" fill-rule="evenodd">
        <g id="motion_car_vector">
            <path d="M210.092056,42.2730402 C220.103552,72.4845366 213.686682,88.5185599 214.144609,116.29893 C214.602536,144.079299 214.144609,152.641863 214.602536,167.003319 C216.723149,172.328972 219.172959,172.181392 230.677139,178.764423 C242.181319,185.347453 243.817473,194.803366 240.452793,199.472782 C236.032719,197.196777 227.415967,192.841542 214.602536,186.407074 C216.016278,315.8435 216.723149,384.34598 216.723149,391.914514 C216.723149,403.267314 209.811011,466.265078 206.697895,473.667667 C203.58478,481.070256 202.989033,493.953702 199.319723,497.251613 C195.650413,500.549523 187.248294,502.588334 183.113196,506.262572 C179.008601,509.909707 142.42099,515.907158 120,515.99544 C97.0813262,515.907158 62.9913993,509.909707 58.8868042,506.262572 C54.7517064,502.588334 46.3495866,500.549523 42.6802769,497.251613 C39.0109672,493.953702 38.4152203,481.070256 35.3021048,473.667667 C32.1889893,466.265078 25.276851,403.267314 25.276851,391.914514 C25.276851,384.34598 25.9837222,315.8435 27.3974644,186.407074 C14.5840332,192.841542 5.96728072,197.196777 1.54720707,199.472782 C-1.81747328,194.803366 -0.181318845,185.347453 11.3228613,178.764423 C22.8270414,172.181392 25.276851,172.328972 27.3974644,167.003319 C27.8553911,152.641863 27.3974644,144.079299 27.8553911,116.29893 C28.3133178,88.5185599 21.8964479,72.4845366 31.9079442,42.2730402 C41.8200383,12.3615081 101.709961,4.77590833e-15 120,0 C138.290039,0 200.179962,12.3615081 210.092056,42.2730402 Z" id="car-body-(color-me)" fill="#CCCCCC"></path>
            <g id="shine-details" transform="translate(27.000000, 18.000000)" fill="#FFFFFF" fill-opacity="0.4">
                <path d="M35.2158203,0.507080078 C25.5830078,10.2167969 10.8095703,60.6425781 11.2666016,97.609375 C15.7539062,66.7412109 25.1660156,23.078125 35.2158203,0.507080078 Z" id="left-hood-shine"></path>
                <path d="M175.21582,0.507080078 C165.583008,10.2167969 150.80957,60.6425781 151.266602,97.609375 C155.753906,66.7412109 165.166016,23.078125 175.21582,0.507080078 Z" id="right-hood-shine" transform="translate(163.236033, 49.058228) scale(-1, 1) translate(-163.236033, -49.058228) "></path>
                <path d="M27.5,196 L27.5,196 C27.7907478,196 28.0407189,196.206044 28.0962178,196.491446 C31.6753108,214.896684 33.4648438,238.73287 33.4648438,268 C33.4648438,297.391482 31.6600715,329.892308 28.050527,365.502478 L28.0505036,365.502476 C28.0218648,365.785014 27.7839855,366 27.5,366 L27.5,366 C27.2488992,366 27.0453418,365.796443 27.0453418,365.545342 C27.0453418,365.530971 27.0460232,365.516609 27.0473835,365.502302 C30.659029,327.52118 32.4648438,295.020412 32.4648438,268 C32.4648438,241.074853 30.67174,217.238948 27.0855325,196.492284 L27.0855069,196.492288 C27.0459368,196.26337 27.1994338,196.045717 27.4283519,196.006147 C27.4520154,196.002056 27.4759856,196 27.5,196 Z" id="left-roof-shine"></path>
                <path d="M154.5,196 L154.5,196 C154.790748,196 155.040719,196.206044 155.096218,196.491446 C158.675311,214.896684 160.464844,238.73287 160.464844,268 C160.464844,297.391482 158.660071,329.892308 155.050527,365.502478 L155.050504,365.502476 C155.021865,365.785014 154.783986,366 154.5,366 L154.5,366 C154.248899,366 154.045342,365.796443 154.045342,365.545342 C154.045342,365.530971 154.046023,365.516609 154.047384,365.502302 C157.659029,327.52118 159.464844,295.020412 159.464844,268 C159.464844,241.074853 157.67174,217.238948 154.085532,196.492284 L154.085507,196.492288 C154.045937,196.26337 154.199434,196.045717 154.428352,196.006147 C154.452015,196.002056 154.475986,196 154.5,196 Z" id="right-roof-shine" transform="translate(157.255093, 281.000000) scale(-1, 1) translate(-157.255093, -281.000000) "></path>
                <path d="M8.12402344,26.0070801 C-0.521484375,41.3522949 -1.88232422,59.3896484 4.94287109,84.4277344 C5.31689453,66.6621094 5.31835937,46.7834473 8.12402344,26.0070801 Z" id="left-fender-shine"></path>
                <path d="M187.124023,26.0070801 C178.478516,41.3522949 177.117676,59.3896484 183.942871,84.4277344 C184.316895,66.6621094 184.318359,46.7834473 187.124023,26.0070801 Z" id="right-fender-shine" transform="translate(183.365649, 55.217407) scale(-1, 1) translate(-183.365649, -55.217407) "></path>
            </g>
            <g id="lights" transform="translate(32.000000, 19.000000)" fill="#FFFFFF">
                <path d="M23.2856445,0.390869141 C16.4299316,3.58544922 4.29711914,12.6628418 0.838623047,24.4304199 C6.21459961,22.5900879 9.14404297,20.6364746 9.97949219,18.5549316 C10.8149414,16.4733887 11.2680664,14.6428223 15.3847656,9.46289062 C19.5014648,4.28295898 26.092041,1.05151367 23.2856445,0.390869141 Z" id="left-headlight" fill-opacity="0.85"></path>
                <path d="M176.285645,0.390869141 C169.429932,3.58544922 157.297119,12.6628418 153.838623,24.4304199 C159.2146,22.5900879 162.144043,20.6364746 162.979492,18.5549316 C163.814941,16.4733887 164.268066,14.6428223 168.384766,9.46289062 C172.501465,4.28295898 179.092041,1.05151367 176.285645,0.390869141 Z" id="right-headlight" fill-opacity="0.85" transform="translate(165.399672, 12.410645) scale(-1, 1) translate(-165.399672, -12.410645) "></path>
                <path d="M3.77075195,455.272705 C6.04211426,462.47937 7.7890625,475.34729 10.2272949,477.718994 C12.6655273,480.090698 19.5426025,483.272583 21.5339355,483.852783 C20.0078939,482.622477 19.1470947,481.719401 18.9515381,481.143555 C14.1811117,478.214193 11.5351562,474.781047 11.0136719,470.844116 C7.8704834,464.697876 7.33911133,456.234741 3.77075195,455.272705 Z" id="left-tail-light" fill-opacity="0.5"></path>
                <path d="M156,455 C158.271362,462.206665 160.415405,475.358765 162.853638,477.730469 C165.29187,480.102173 172.542603,483.272583 174.533936,483.852783 C173.007894,482.622477 172.147095,481.719401 171.951538,481.143555 C167.181112,478.214193 164.535156,474.781047 164.013672,470.844116 C160.870483,464.697876 159.568359,455.962036 156,455 Z" id="right-tail-light" fill-opacity="0.5" transform="translate(165.266968, 469.426392) scale(-1, 1) translate(-165.266968, -469.426392) "></path>
            </g>
            <g id="windows" transform="translate(24.000000, 113.000000)">
                <g id="front-windshield">
                    <use fill="url(#linearGradient-1)" fill-rule="evenodd" xlink:href="#path-2"></use>
                    <path stroke="#3D3D3D" stroke-width="3" d="M178.171303,26.5177347 C159.604306,10.3020837 127.37258,1.57981095 95.6710079,1.51596051 C63.5705449,1.58140704 32.2352613,10.121436 16.2191481,26.2092785 C15.4173474,40.0678552 23.8377326,81.6409933 29.8926798,98.5383244 C42.0364254,91.9741735 69.1013018,86.2508172 95.8352223,86.2285852 C122.517208,86.250776 151.527951,92.4682032 163.894516,99.1144614 C169.606775,82.9257019 177.858626,43.0926157 178.171303,26.5177347 Z"></path>
                </g>
                <g id="rear-window">
                    <use fill="url(#linearGradient-3)" fill-rule="evenodd" xlink:href="#path-4"></use>
                    <path stroke="#3D3D3D" stroke-width="3" d="M23.2815172,336.511376 C23.4355342,337.108475 24.9447779,338.247397 27.7112745,339.425718 C31.0236981,340.836564 35.8018282,342.202087 41.740498,343.391761 C55.4770111,346.143551 74.1295842,347.748981 95.9991158,347.748946 C117.817372,347.736085 136.780784,346.121684 150.908877,343.376153 C157.048938,342.182947 162.019206,340.815879 165.475182,339.4087 C168.420317,338.209522 170.021733,337.044974 170.11903,336.559236 C170.489166,334.005707 169.529175,325.571039 166.024373,298.373932 C165.951108,297.805336 165.951108,297.805336 165.877867,297.23658 C164.472437,286.320622 163.641845,279.627907 163.010505,273.903051 C142.538308,281.006659 129.637712,282.483696 95.8663521,282.515561 C74.2424549,282.495156 48.1117724,279.965807 30.2005065,273.90269 C29.5850205,279.510594 28.8057382,285.903959 27.3836583,297.231876 C27.3450407,297.539477 27.3450407,297.539477 27.3064199,297.84705 C23.9416541,324.642857 22.9244999,333.853607 23.2815172,336.511376 Z"></path>
                </g>
                <g id="left-windows">
                    <use fill="url(#linearGradient-5)" fill-rule="evenodd" xlink:href="#path-6"></use>
                    <path stroke="#3D3D3D" stroke-width="2" d="M7.39244507,68.4300271 C7.53577924,184.562051 9.21287609,255.021053 12.4125372,279.675717 C17.0434221,269.806567 22.8849769,250.882539 24.4192842,237.427729 C25.8255927,210.036764 25.0719383,142.41048 23.1766483,129.273994 C21.3779289,113.844327 16.2933897,85.1168761 13.1156028,74.2098987 C11.9724419,70.286278 10.8041837,67.8914181 9.75148412,67.0981471 C9.0871492,66.5975318 8.40081447,66.8786273 7.39244507,68.4300271 Z"></path>
                </g>
                <g id="right-windows" transform="translate(177.876117, 174.263004) scale(-1, 1) translate(-177.876117, -174.263004) ">
                    <use fill="url(#linearGradient-5)" fill-rule="evenodd" xlink:href="#path-7"></use>
                    <path stroke="#3D3D3D" stroke-width="2" d="M169.000355,68.2898904 C169.143689,184.421915 170.820786,254.880917 174.020447,279.535581 C178.651332,269.66643 184.492887,250.742402 186.027194,237.287593 C187.433503,209.896628 186.679848,142.270343 184.784558,129.133858 C182.985839,113.70419 177.9013,84.9767394 174.723513,74.069762 C173.580352,70.1461413 172.412094,67.7512814 171.359394,66.9580104 C170.695059,66.4573951 170.008725,66.7384906 169.000355,68.2898904 Z"></path>
                </g>
                <polygon id="left-window-panel-1" fill="#3D3D3D" points="7.93554688 148.120605 8.29882812 174 25.2871094 174 25.2871094 156.197266"></polygon>
                <polygon id="right-window-panel-1" fill="#3D3D3D" transform="translate(177.611328, 161.060303) scale(-1, 1) translate(-177.611328, -161.060303) " points="168.935547 148.120605 169.298828 174 186.287109 174 186.287109 156.197266"></polygon>
                <rect id="left-window-pannel-2" fill="#3D3D3D" transform="translate(17.485281, 234.485281) rotate(45.000000) translate(-17.485281, -234.485281) " x="16.4852814" y="223.485281" width="2" height="22"></rect>
                <rect id="right-window-panel-2" fill="#3D3D3D" transform="translate(177.131728, 235.131728) scale(-1, 1) rotate(45.000000) translate(-177.131728, -235.131728) " x="176.131728" y="224.631728" width="2" height="21"></rect>
                <path d="M5.98608398,45.4846459 C4.6829834,51.7486572 3.02593994,55.7716064 0.865783691,57.9677734 C1.45123291,59.4584961 2.75118001,62.7260017 4.765625,67.7702904 L14.5063477,75.5713158 L10.5952148,54.1042748 C9.73323568,46.6343854 8.19685872,43.7611758 5.98608398,45.4846459 Z" id="left-side-mirror-arm" fill="#4A4A4A"></path>
                <path d="M184.562988,45.1120605 C184.002441,51.359375 181.591553,55.8408203 179.576904,57.7858887 C180.162354,59.2766113 181.417562,62.4805501 183.342529,67.3977051 L193.083252,75.1987305 L189.172119,53.7316895 C188.31014,46.2618001 186.773763,43.3885905 184.562988,45.1120605 Z" id="right-side-mirror-arm" fill="#4A4A4A" transform="translate(186.330078, 59.913073) scale(-1, 1) translate(-186.330078, -59.913073) "></path>
            </g>
        </g>
    </g>
</svg>